<?xml version="1.0" encoding="utf-8" ?>
<svg baseProfile="full" height="200mm" version="1.1" viewBox="0,0,200,200" width="200mm" xmlns="http://www.w3.org/2000/svg" xmlns:ev="http://www.w3.org/2001/xml-events" xmlns:xlink="http://www.w3.org/1999/xlink"><defs /><rect fill="#1a1a1a" height="200" width="200" x="0" y="0" /><text alignment-baseline="middle" fill="#e1ed5e" style="dominant-baseline: central; font-size:9.0px; font-family:Arial;" text-anchor="middle" x="100.0" y="100.0">2020</text><line stroke="#e1ed5e" stroke-width="0.3" x1="100.0" x2="100.0" y1="15.0" y2="10.0" /><path d="M 100.0 14.0 a86.0,86.0 0 0,1 42.35913384403234,11.155469271406648" fill="none" id="id1" stroke="none" /><text fill="#e1ed5e" style="font-size:6.75px; font-family:Arial;" text-anchor="middle"><textPath startOffset="22.145653131862478" xlink:href="#id1">January</textPath></text><line stroke="#e1ed5e" stroke-width="0.3" x1="143.13028292997686" x2="145.6673583964461" y1="26.7553504044142" y2="22.446841604673864" /><path d="M 143.63769802327073 25.89364864446614 a86.0,86.0 0 0,1 29.32050498858742,28.57503671076993" fill="none" id="id2" stroke="none" /><text fill="#e1ed5e" style="font-size:6.75px; font-family:Arial;" text-anchor="middle"><textPath startOffset="20.669276256404974" xlink:href="#id2">February</textPath></text><line stroke="#e1ed5e" stroke-width="0.3" x1="172.87174338648825" x2="177.1583165268699" y1="56.24261187166439" y2="53.66864786411523" /><path d="M 173.72905801456457 55.72781907015455 a86.0,86.0 0 0,1 12.242430191666344,42.057860355516425" fill="none" id="id3" stroke="none" /><text fill="#e1ed5e" style="font-size:6.75px; font-family:Arial;" text-anchor="middle"><textPath startOffset="22.145653131862474" xlink:href="#id3">March</textPath></text><line stroke="#e1ed5e" stroke-width="0.3" x1="184.99686870605535" x2="189.99668451229388" y1="99.2704041080226" y2="99.22748670261217" /><path d="M 185.99683186730306 99.26182062694052 a86.0,86.0 0 0,1 -10.086455211305974,41.156179273409016" fill="none" id="id4" stroke="none" /><text fill="#e1ed5e" style="font-size:6.75px; font-family:Arial;" text-anchor="middle"><textPath startOffset="21.40746469413373" xlink:href="#id4">April</textPath></text><path d="M 119.94978838288452 106.5578916946017 l 36.31864695492793 11.938660634076134 a59.23056021525626,59.23056021525626 0 0,0 -0.3258091996808561,0.9631970063555916 l -36.10835233367471 -12.560359314905886" fill="#89ff24" stroke="none" /><path d="M 119.83427380445688 106.89939002012753 l 36.96404806727813 12.858014709950524 a60.136548031237396,60.136548031237396 0 0,0 -0.34753148777215287,0.972107423834515 l -36.737876409462025 -13.49065709016596" fill="#7cff26" stroke="none" /><path d="M 119.71291397450082 107.23885506374661 l 35.88741641525336 13.178356400194161 a59.23056021525626,59.23056021525626 0 0,0 -0.358681420945797,0.9514450829750393 l -35.65590431049313 -13.79246976336336" fill="#89ff24" stroke="none" /><path d="M 119.58574465831526 107.57618678355244 l 50.512531106531924 19.539332164764758 a75.15996030494637,75.15996030494637 0 0,0 -0.47580308154443146,1.1993345830693536 l -50.169669350021366 -20.403567765047676" fill="#3fffba" stroke="none" /><path d="M 119.4528033332814 107.91128576633889 l 35.41388424707391 14.402518422386596 a59.23056021525626,59.23056021525626 0 0,0 -0.39113085311816675,0.9385716612961006 l -35.16142754941926 -15.008322593123975" fill="#89ff24" stroke="none" /><path d="M 119.31412917781788 108.2440532568976 l 35.16142754941926 15.008322593123975 a59.23056021525626,59.23056021525626 0 0,0 -0.4071850497255669,0.9317190794059501 l -34.89860861767672 -15.609703742305769" fill="#89ff24" stroke="none" /><path d="M 119.16976305983485 108.57439118712176 l 34.89860861767672 15.609703742305769 a59.23056021525626,59.23056021525626 0 0,0 -0.423119247029833,0.9245919156265386 l -34.625504905791836 -16.206484640146996" fill="#89ff24" stroke="none" /><path d="M 119.0197475246899 108.90220220490707 l 34.625504905791836 16.206484640146996 a59.23056021525626,59.23056021525626 0 0,0 -0.4389287491499188,0.9171922703657813 l -34.342196898682005 -16.798489412577883" fill="#89ff24" stroke="none" /><path d="M 118.8641267826498 109.22738970284198 l 34.342196898682005 16.798489412577883 a59.23056021525626,59.23056021525626 0 0,0 -0.4546088969529866,0.9095223243331034 l -34.048768088517285 -17.385543593074733" fill="#89ff24" stroke="none" /><path d="M 118.70294669586154 109.54985784667822 l 34.048768088517285 17.385543593074733 a59.23056021525626,59.23056021525626 0 0,0 -0.4701550694274577,0.9015843378967443 l -33.74530495011488 -17.967474174075978" fill="#89ff24" stroke="none" /><path d="M 118.5362547648365 109.86951160357373 l 33.74530495011488 17.967474174075978 a59.23056021525626,59.23056021525626 0 0,0 -0.48556268504500266,0.8933806504178038 l -33.43189691545454 -18.544109657968384" fill="#89ff24" stroke="none" /><line stroke="#e1ed5e" stroke-width="0.3" x1="174.33088141563837" x2="178.70328620479359" y1="141.23008692659167" y2="143.65538615756765" /><path d="M 175.20536237346943 141.71514677278685 a86.0,86.0 0 0,1 -30.301960400862466,31.631185727798858" fill="none" id="id5" stroke="none" /><text fill="#e1ed5e" style="font-size:6.75px; font-family:Arial;" text-anchor="middle"><textPath startOffset="22.145653131862474" xlink:href="#id5">May</textPath></text><path d="M 118.36410011445183 110.18625677009912 l 33.43189691545454 18.544109657968384 a59.23056021525626,59.23056021525626 0 0,0 -0.5008272031105562,0.8849136795606143 l -33.1086363473226 -19.115280107628124" fill="#89ff24" stroke="none" /><path d="M 118.18653347947321 110.5 l 33.1086363473226 19.115280107628124 a59.23056021525626,59.23056021525626 0 0,0 -0.5159441251005883,0.8761859205803775 l -32.77561851209225 -19.680817196502048" fill="#89ff24" stroke="none" /><path d="M 118.00360718960297 110.81064883170644 l 32.77561851209225 19.680817196502048 a59.23056021525626,59.23056021525626 0 0,0 -0.5309089959887815,0.8671999455876556 l -32.432941551648064 -20.24055425821426" fill="#89ff24" stroke="none" /><path d="M 117.81537515405839 111.11811171558189 l 32.432941551648064 20.24055425821426 a59.23056021525626,59.23056021525626 0 0,0 -0.5457174055590241,0.857958402790593 l -32.08070645446315 -20.794326335683525" fill="#89ff24" stroke="none" /><path d="M 117.62189284568427 111.42229804090321 l 32.08070645446315 20.794326335683525 a59.23056021525626,59.23056021525626 0 0,0 -0.5603649897050343,0.8484640157142361 l -31.71901702583739 -21.341970229736823" fill="#89ff24" stroke="none" /><path d="M 117.423217284605 111.72311816256416 l 31.71901702583739 21.341970229736823 a59.23056021525626,59.23056021525626 0 0,0 -0.5748474317165426,0.8387195823980661 l -31.347979857305525 -21.883324547204936" fill="#89ff24" stroke="none" /><path d="M 117.21940702142032 112.02048342749411 l 31.347979857305525 21.883324547204936 a59.23056021525626,59.23056021525626 0 0,0 -0.5891604635513827,0.8287279745712529 l -30.96770429522418 -22.41822974848569" fill="#89ff24" stroke="none" /><path d="M 117.01052211995028 112.31430620078461 l 30.96770429522418 22.41822974848569 a59.23056021525626,59.23056021525626 0 0,0 -0.6032998670934179,0.818492136806534 l -30.578302408546936 -22.946528194561104" fill="#89ff24" stroke="none" /><path d="M 116.79662413953412 112.60449989151573 l 30.578302408546936 22.946528194561104 a59.23056021525626,59.23056021525626 0 0,0 -0.6172614753955066,0.8080150856522781 l -30.179888955797125 -23.468064193454257" fill="#89ff24" stroke="none" /><path d="M 116.57777611688842 112.89097897827486 l 30.179888955797125 23.468064193454257 a59.23056021525626,59.23056021525626 0 0,0 -0.6310411739075807,0.7972999087434949 l -29.772581351247982 -23.982684046112436" fill="#89ff24" stroke="none" /><path d="M 116.35404254752997 113.17365903436017 l 29.772581351247982 23.982684046112436 a59.23056021525626,59.23056021525626 0 0,0 -0.6446349016892771,0.78634976389207 l -29.356499630320076 -24.490236091702997" fill="#89ff24" stroke="none" /><path d="M 116.1254893667686 113.45245675266167 l 29.356499630320076 24.490236091702997 a59.23056021525626,59.23056021525626 0 0,0 -0.6580386526065952,0.7751678781559123 l -28.93176641420637 -24.990570752308468" fill="#89ff24" stroke="none" /><path d="M 115.89218393027572 113.72728997021213 l 28.93176641420637 24.990570752308468 a59.23056021525626,59.23056021525626 0 0,0 -0.6712484765126557,0.7637575468881088 l -28.498506873735124 -25.48354057700787" fill="#89ff24" stroke="none" /><path d="M 115.6541949942343 113.99807769240083 l 28.498506873735124 25.48354057700787 a59.23056021525626,59.23056021525626 0 0,0 -0.68426048041165,0.7521221327655975 l -28.056848692481594 -25.969000285331138" fill="#89ff24" stroke="none" /><path d="M 115.41159269507618 114.26474011684316 l 28.056848692481594 25.969000285331138 a59.23056021525626,59.23056021525626 0 0,0 -0.6970708296063695,0.7402650647983671 l -27.606922029138968 -26.446806810074" fill="#89ff24" stroke="none" /><path d="M 115.16444852881244 114.52719865689866 l 27.606922029138968 26.446806810074 a59.23056021525626,59.23056021525626 0 0,0 -0.7096757488281127,0.7281898373187925 l -27.148859479160045 -26.91681933946053" fill="#89ff24" stroke="none" /><path d="M 114.91283532996324 114.78537596483092 l 27.148859479160045 26.91681933946053 a59.23056021525626,59.23056021525626 0 0,0 -0.7220715233492501,0.7159000089517609 l -26.68279603568083 -27.378899358640954" fill="#89ff24" stroke="none" /><path d="M 114.65682725009322 115.03919595460226 l 26.68279603568083 27.378899358640954 a59.23056021525626,59.23056021525626 0 0,0 -0.7342545000782195,0.7033992015661817 l -26.2088690497373 -27.832910690512715" fill="#89ff24" stroke="none" /><path d="M 114.39649973595853 115.28858382429668 l 26.2088690497373 27.832910690512715 a59.23056021525626,59.23056021525626 0 0,0 -0.7462210886358182,0.690691099207322 l -25.727218189787514 -28.278719535852417" fill="#89ff24" stroke="none" /><path d="M 114.13192950727249 115.5334660781643 l 25.727218189787514 28.278719535852417 a59.23056021525626,59.23056021525626 0 0,0 -0.7579677624134853,0.6777794470112999 l -25.237985400550652 -28.716194512747105" fill="#89ff24" stroke="none" /><path d="M 113.86319453409587 115.77377054828091 l 25.237985400550652 28.716194512747105 a59.23056021525626,59.23056021525626 0 0,0 -0.7694910596125583,0.6646680501012854 l -24.741314861175237 -29.14520669531311" fill="#89ff24" stroke="none" /><path d="M 113.59037401385872 116.0094264158162 l 24.741314861175237 29.14520669531311 a59.23056021525626,59.23056021525626 0 0,0 -0.7807875842643945,0.6513607724660833 l -24.23735294274895 -29.56562965169106" fill="#89ff24" stroke="none" /><path d="M 113.31354834802062 116.24036423190432 l 24.23735294274895 29.56562965169106 a59.23056021525626,59.23056021525626 0 0,0 -0.7918540072314296,0.6378615358215596 l -23.726248165162264 -29.977339481306025" fill="#89ff24" stroke="none" /><path d="M 113.03279911837588 116.46651593811092 l 23.726248165162264 29.977339481306025 a59.23056021525626,59.23056021525626 0 0,0 -0.8026870671879087,0.6241743184546427 l -23.208151153339127 -30.38021485138146" fill="#89ff24" stroke="none" /><path d="M 112.7482090630111 116.68781488649013 l 23.208151153339127 30.38021485138146 a59.23056021525626,59.23056021525626 0 0,0 -0.8132835715814295,0.6103031540511662 l -22.68321459284693 -30.774137032696643" fill="#89ff24" stroke="none" /><path d="M 112.45986205192187 116.90419585922612 l 22.68321459284693 30.774137032696643 a59.23056021525626,59.23056021525626 0 0,0 -0.8236403975734756,0.5962521305069374 l -22.151593184899486 -31.158989934576656" fill="#89ff24" stroke="none" /><path d="M 112.16784306229584 117.11559508785304 l 22.151593184899486 31.158989934576656 a59.23056021525626,59.23056021525626 0 0,0 -0.8337544929599066,0.5820253887230961 l -21.613443600765823 -31.534660139104876" fill="#89ff24" stroke="none" /><path d="M 111.8722381534696 117.32195027204791 l 21.613443600765823 31.534660139104876 a59.23056021525626,59.23056021525626 0 0,0 -0.8436228770703383,0.5676271213856968 l -21.06892443559848 -31.901036934547694" fill="#89ff24" stroke="none" /><path d="M 111.5731344415666 117.5232005979908 l 21.06892443559848 31.901036934547694 a59.23056021525626,59.23056021525626 0 0,0 -0.8532426416467317,0.5530615717302731 l -20.51819616169474 -32.25801234798186" fill="#89ff24" stroke="none" /><path d="M 111.27062007382361 117.71928675628689 l 20.51819616169474 32.25801234798186 a59.23056021525626,59.23056021525626 0 0,0 -0.8626109517002929,0.5383330322911245 l -19.96142108120473 -32.605481177114534" fill="#89ff24" stroke="none" /><path d="M 110.96478420261333 117.91015095944535 l 19.96142108120473 32.605481177114534 a59.23056021525626,59.23056021525626 0 0,0 -0.8717250463470485,0.5234458436364526 l -19.398763278300247 -32.94334102128691" fill="#89ff24" stroke="none" /><line stroke="#e1ed5e" stroke-width="0.3" x1="143.1302829299769" x2="145.66735839644613" y1="173.24464959558577" y2="177.55315839532614" /><path d="M 143.63769802327073 174.10635135553383 a86.0,86.0 0 0,1 -40.68552437913181,11.842963189579606" fill="none" id="id6" stroke="none" /><text fill="#e1ed5e" style="font-size:6.75px; font-family:Arial;" text-anchor="middle"><textPath startOffset="21.407464694133747" xlink:href="#id6">June</textPath></text><path d="M 110.65571695917076 118.09573695890943 l 19.398763278300247 32.94334102128691 a59.23056021525626,59.23056021525626 0 0,0 -0.8805822396214866,0.5084043930890708 l -18.83038857081836 -33.27149231165215" fill="#89ff24" stroke="none" /><path d="M 110.34350942703117 118.27599006163325 l 18.83038857081836 33.27149231165215 a59.23056021525626,59.23056021525626 0 0,0 -0.8891799212680926,0.49321311343349955 l -18.256464461394174 -33.589838340518796" fill="#89ff24" stroke="none" /><path d="M 110.02825361518725 118.45085714620011 l 18.256464461394174 33.589838340518796 a59.23056021525626,59.23056021525626 0 0,0 -0.8975155575105969,0.47787648160957674 l -17.677160088097022 -33.89828528985094" fill="#89ff24" stroke="none" /><path d="M 109.71004243097381 118.62028667847754 l 17.677160088097022 33.89828528985094 a59.23056021525626,59.23056021525626 0 0,0 -0.9055866917987279,0.4623990173930726 l -17.092646174584715 -34.19674225891685" fill="#89ff24" stroke="none" /><path d="M 109.3889696526874 118.78422872680471 l 17.092646174584715 34.19674225891685 a59.23056021525626,59.23056021525626 0 0,0 -0.9133909455322179,0.4467852820637779 l -16.503094979790426 -34.48512129107785" fill="#89ff24" stroke="none" /><path d="M 109.06512990194946 118.94263497670748 l 16.503094979790426 34.48512129107785 a59.23056021525626,59.23056021525626 0 0,0 -0.9209260187616437,0.4310398770611376 l -15.908680247157276 -34.76333739970952" fill="#89ff24" stroke="none" /><path d="M 108.73861861582097 119.09545874513695 l 15.908680247157276 34.76333739970952 a59.23056021525626,59.23056021525626 0 0,0 -0.9281896908663604,0.4151674426282844 l -15.309577153435288 -35.03130859324766" fill="#89ff24" stroke="none" /><path d="M 108.4095320186766 119.2426549942271 l 15.309577153435288 35.03130859324766 a59.23056021525626,59.23056021525626 0 0,0 -0.935179821208795,0.3991726564444722 l -14.705962257056063 -35.288955899351535" fill="#89ff24" stroke="none" /><path d="M 108.07796709384702 119.3841803445677 l 14.705962257056063 35.288955899351535 a59.23056021525626,59.23056021525626 0 0,0 -0.9418943497655138,0.38306023224663976 l -14.098013446100108 -35.53620338817746" fill="#89ff24" stroke="none" /><path d="M 107.74402155503746 119.51999308798841 l 14.098013446100108 35.53620338817746 a59.23056021525626,59.23056021525626 0 0,0 -0.9483312977341135,0.3668349184401311 l -13.485909885872465 -35.77297819475564" fill="#89ff24" stroke="none" /><path d="M 107.407793817531 119.65005319985036 l 13.485909885872465 35.77297819475564 a59.23056021525626,59.23056021525626 0 0,0 -0.954488768116485,0.3505014966994129 l -12.869831966101852 -35.99921054046377" fill="#89ff24" stroke="none" /><path d="M 107.06938296918513 119.77432235084164 l 12.869831966101852 35.99921054046377 a59.23056021525626,59.23056021525626 0 0,0 -0.9603649462778346,0.3340647805588304 l -12.249961247778996 -36.21483375359119" fill="#89ff24" stroke="none" /><path d="M 106.72888874123015 119.89276391827305 l 17.35411176768691 51.30434781758752 a75.15996030494637,75.15996030494637 0 0,0 -1.225741783035381,0.40292567040912725 l -16.470847247003796 -51.59469440939866" fill="#3fffba" stroke="none" /><path d="M 106.38641147887787 120.00534299687104 l 11.626480409649739 36.419784288987294 a59.23056021525626,59.23056021525626 0 0,0 -0.9712665823992759,0.3009008699946455 l -10.999573194378838 -36.61400174678858" fill="#89ff24" stroke="none" /><path d="M 106.0420521117495 120.11202640906438 l 10.999573194378838 36.61400174678858 a59.23056021525626,59.23056021525626 0 0,0 -0.9762888275971093,0.2841834491276885 l -10.369424354400122 -36.79742889021879" fill="#89ff24" stroke="none" /><path d="M 105.69591212413111 120.21278271476187 l 10.369424354400122 36.79742889021879 a59.23056021525626,59.23056021525626 0 0,0 -0.9810233559963627,0.2673822780939016 l -9.736219597469065 -36.970011662456834" fill="#89ff24" stroke="none" /><path d="M 105.3480935250658 120.30758222061773 l 9.736219597469065 36.970011662456834 a59.23056021525626,59.23056021525626 0 0,0 -0.9854687723097575,0.25050230827547926 l -9.10014553193391 -37.13169920256758" fill="#89ff24" stroke="none" /><path d="M 104.9986988182912 120.39639698878246 l 9.10014553193391 37.13169920256758 a59.23056021525626,59.23056021525626 0 0,0 -0.9896237664527316,0.2335485142770329 l -8.4613896117413 -37.282443860490844" fill="#89ff24" stroke="none" /><path d="M 104.64783097203109 120.47920084513623 l 8.4613896117413 37.282443860490844 a59.23056021525626,59.23056021525626 0 0,0 -0.993487113929363,0.2165258924594377 l -7.8201400811928 -37.422201211083994" fill="#89ff24" stroke="none" /><path d="M 104.29559338865022 120.5559693870025 l 7.8201400811928 37.422201211083994 a59.23056021525626,59.23056021525626 0 0,0 -0.9970576761934888,0.19943945946749922 l -7.176585919468353 -37.55093006721436" fill="#89ff24" stroke="none" /><path d="M 103.94208987418118 120.62667999033965 l 10.166830052580165 53.19715092855367 a75.15996030494637,75.15996030494637 0 0,0 -1.2693632070402747,0.231320261035948 l -9.252132111988834 -53.36383936352098" fill="#3fffba" stroke="none" /><path d="M 103.58742460773223 120.69131181640829 l 6.530916784933295 37.668592491897165 a59.23056021525626,59.23056021525626 0 0,0 -1.0033163226350625,0.16509531908295608 l -5.88332295924516 -37.775153809475796" fill="#89ff24" stroke="none" /><path d="M 103.2317021107853 120.74984581791261 l 8.33470752559731 53.514801230090704 a75.15996030494637,75.15996030494637 0 0,0 -1.2765557573474904,0.18760973571828052 l -7.414826662642134 -53.649992039107865" fill="#3fffba" stroke="none" /><path d="M 102.875027216393 120.80226474461374 l 5.233995291276801 37.87058261584085 a59.23056021525626,59.23056021525626 0 0,0 -1.0083923285137144,0.130556575643839 l -4.583125140872311 -37.95485078768508" fill="#89ff24" stroke="none" /><path d="M 102.51750503828377 120.84855314841334 l 4.583125140872311 37.95485078768508 a59.23056021525626,59.23056021525626 0 0,0 -1.0104849168189691,0.11322694259940624 l -3.9309043224525424 -38.02793349079146" fill="#89ff24" stroke="none" /><path d="M 102.15924093988457 120.88869738790638 l 3.9309043224525424 38.02793349079146 a59.23056021525626,59.23056021525626 0 0,0 -1.0122797105812198,0.095863941055289 l -3.2775250484863077 -38.08980918735193" fill="#89ff24" stroke="none" /><path d="M 101.80034050326958 120.92268563240118 l 4.643160485355602 53.96056301541523 a75.15996030494637,75.15996030494637 0 0,0 -1.2864200040504878,0.09957704420222555 l -3.7161714865298783 -54.03231782661251" fill="#3fffba" stroke="none" /><path d="M 101.44090949804482 120.95050786540614 l 3.7161714865298783 54.03231782661251 a75.15996030494637,75.15996030494637 0 0,0 -1.2879398194873657,0.07747926130365558 l -2.7880873149100474 -54.088149065740865" fill="#3fffba" stroke="none" /><path d="M 101.08105385017728 120.97215588758144 l 2.7880873149100474 54.088149065740865 a75.15996030494637,75.15996030494637 0 0,0 -1.2890800731479,0.0553586449111439 l -1.8591814811613179 -54.12804027907784" fill="#3fffba" stroke="none" /><path d="M 100.72087961077811 120.9876233191556 l 1.3123633984668126 38.20802843229024 a59.23056021525626,59.23056021525626 0 0,0 -1.0164716810337835,0.026180704830151526 l -0.6562784033622854 -38.22492685447044" fill="#89ff24" stroke="none" /><line stroke="#e1ed5e" stroke-width="0.3" x1="101.45913802915013" x2="101.54496967792366" y1="184.9874750549273" y2="189.98673829345242" /><path d="M 101.47630435890484 185.9873277026323 a86.0,86.0 0 0,1 -42.54439059252881,-10.42667462771756" fill="none" id="id7" stroke="none" /><text fill="#e1ed5e" style="font-size:6.75px; font-family:Arial;" text-anchor="middle"><textPath startOffset="22.145653131862474" xlink:href="#id7">July</textPath></text><path d="M 100.36049292484886 120.99690560180557 l 0.6562784033622854 38.22492685447044 a59.23056021525626,59.23056021525626 0 0,0 -1.016771328211133,0.008727758980259868 l -4.6818933197223725e-15 -38.23056021525626" fill="#89ff24" stroke="none" /><path d="M 100.0 121.0 l 7.19442025025475e-15 58.74689955719302 a79.74689955719302,79.74689955719302 0 0,0 -1.3689615747142925,-0.011750888666740966 l 1.0084686498654334 -58.73824306672071" fill="#46fff7" stroke="none" /><path d="M 99.63950707515114 120.99690560180557 l -0.6562784033622759 38.22492685447044 a59.23056021525626,59.23056021525626 0 0,0 -1.0164716810337833,-0.026180704830144952 l 1.312363398466803 -38.20802843229024" fill="#89ff24" stroke="none" /><path d="M 99.27912038922189 120.98762331915562 l -1.312363398466803 38.20802843229024 a59.23056021525626,59.23056021525626 0 0,0 -1.0158724749864831,-0.043625935106157886 l 1.968061634054125 -38.17986992875826" fill="#89ff24" stroke="none" /><path d="M 98.91894614982273 120.97215588758144 l -2.78808731491001 54.088149065740865 a75.15996030494637,75.15996030494637 0 0,0 -1.287939819487433,-0.07747926130365558 l 3.7161714865298894 -54.03231782661251" fill="#3fffba" stroke="none" /><path d="M 98.55909050195518 120.95050786540614 l -3.7161714865298894 54.03231782661251 a75.15996030494637,75.15996030494637 0 0,0 -1.286420004050487,-0.09957704420222555 l 4.6431604853556125 -53.96056301541523" fill="#3fffba" stroke="none" /><path d="M 98.19965949673042 120.92268563240118 l -3.2775250484863148 38.08980918735193 a59.23056021525626,59.23056021525626 0 0,0 -1.0122797105812198,-0.095863941055289 l 3.93090432245255 -38.02793349079146" fill="#89ff24" stroke="none" /><path d="M 97.84075906011543 120.88869738790638 l -3.93090432245255 38.02793349079146 a59.23056021525626,59.23056021525626 0 0,0 -1.0104849168189691,-0.11322694259940624 l 4.583125140872318 -37.95485078768508" fill="#89ff24" stroke="none" /><path d="M 97.48249496171623 120.84855314841334 l -4.583125140872318 37.95485078768508 a59.23056021525626,59.23056021525626 0 0,0 -1.0083923285136618,-0.1305565756438324 l 5.233995291276774 -37.87058261584085" fill="#89ff24" stroke="none" /><path d="M 97.12497278360702 120.80226474461374 l -5.233995291276774 37.87058261584085 a59.23056021525626,59.23056021525626 0 0,0 -1.0060025623606756,-0.14784773306617377 l 5.883322959245135 -37.775153809475796" fill="#89ff24" stroke="none" /><path d="M 96.76829788921471 120.74984581791261 l -8.334707525597274 53.51480123009071 a75.15996030494637,75.15996030494637 0 0,0 -1.2731470833384833,-0.20949586807405887 l 9.252132111988821 -53.36383936352098" fill="#3fffba" stroke="none" /><path d="M 96.41257539226777 120.69131181640829 l -6.530916784933286 37.668592491897165 a59.23056021525626,59.23056021525626 0 0,0 -1.0003344009840007,-0.18229425075143801 l 7.1765859194683435 -37.55093006721436" fill="#89ff24" stroke="none" /><path d="M 96.05791012581884 120.62667999033965 l -7.1765859194683435 37.55093006721436 a59.23056021525626,59.23056021525626 0 0,0 -0.9970576761934905,-0.19943945946749922 l 7.820140081192792 -37.422201211084" fill="#89ff24" stroke="none" /><path d="M 95.70440661134978 120.55596938700252 l -11.078531781689788 53.014785049035666 a75.15996030494637,75.15996030494637 0 0,0 -1.2606744183245686,-0.2747581218732529 l 11.986968616633494 -52.8167954690287" fill="#3fffba" stroke="none" /><path d="M 95.35216902796893 120.47920084513623 l -11.986968616633494 52.8167954690287 a75.15996030494637,75.15996030494637 0 0,0 -1.2557720665329548,-0.2963587884117154 l 12.891872836906336 -52.60324053697075" fill="#3fffba" stroke="none" /><path d="M 95.00130118170881 120.39639698878247 l -12.891872836906336 52.60324053697075 a75.15996030494637,75.15996030494637 0 0,0 -1.250499632949472,-0.31787211665498316 l 13.792977763081186 -52.37418318848051" fill="#3fffba" stroke="none" /><path d="M 94.6519064749342 120.30758222061772 l -13.792977763081186 52.37418318848051 a75.15996030494637,75.15996030494637 0 0,0 -1.2448586713843033,-0.33929176652641135 l 14.690017835400186 -52.129690927809946" fill="#3fffba" stroke="none" /><path d="M 94.30408787586889 120.21278271476187 l -14.690017835400186 52.129690927809946 a75.15996030494637,75.15996030494637 0 0,0 -1.2388508442549075,-0.3606114255569497 l 15.5827286920367 -51.86983580795049" fill="#3fffba" stroke="none" /><path d="M 93.95794788825049 120.11202640906438 l -15.615404757472803 51.97860380247295 a75.27353055582583,75.27353055582583 0 0,0 -1.234340254462949,-0.38240176607314125 l 16.505385644807387 -51.70288544859316" fill="#3fffbc" stroke="none" /><line stroke="#e1ed5e" stroke-width="0.3" x1="58.13341422392154" x2="55.67067388415222" y1="173.97424548756322" y2="178.32567169271397" /><path d="M 57.64086615596768 174.84453072859336 a86.0,86.0 0 0,1 -31.369924170532247,-30.572349798747897" fill="none" id="id8" stroke="none" /><text fill="#e1ed5e" style="font-size:6.75px; font-family:Arial;" text-anchor="middle"><textPath startOffset="22.145653131862474" xlink:href="#id8">August</textPath></text><path d="M 89.34428304082925 118.09573695890944 l -19.77023181288 33.57417580378196 a59.96264039869822,59.96264039869822 0 0,0 -0.8824994275030433,-0.5299155499475098 l 20.343663996940467 -33.22984625329853" fill="#7eff26" stroke="none" /><path d="M 89.03521579738668 117.91015095944536 l -8.67422721357873 14.168698259897967 a37.61307401213952,37.61307401213952 0 0,0 -0.5477822504476053,-0.3418566380793762 l 8.916173592816047 -14.017705824977043" fill="#ff0d01" stroke="none" /><path d="M 88.72937992617639 117.7192867562869 l -8.71960670881249 13.708670034431831 a37.246820466457336,37.246820466457336 0 0,0 -0.536557063992715,-0.34778980638154133 l 8.953649405062215 -13.556966386346394" fill="#ff0601" stroke="none" /><path d="M 88.1277618465304 117.32195027204791 l -9.726675509648885 14.191510253797054 a38.20485919017155,38.20485919017155 0 0,0 -0.5377878056014186,-0.37541765501556945 l 9.96885840642407 -14.022447782976355" fill="#ff1802" stroke="none" /><path d="M 87.83215693770417 117.11559508785305 l -9.634115528993513 13.55159000487125 a37.627139672418714,37.627139672418714 0 0,0 -0.5232304433170395,-0.378778490580345 l 9.865326982684506 -13.384210742917839" fill="#ff0d01" stroke="none" /><path d="M 87.2517909369889 116.68781488649013 l -9.941679577581079 13.01397769925542 a37.376831451169366,37.376831451169366 0 0,0 -0.5065273586689537,-0.39387873780431637 l 10.163616880885261 -12.841397909830311" fill="#ff0901" stroke="none" /><path d="M 85.60350026404147 115.28858382429668 l -11.464805493044661 12.17522613304866 a37.72357307468168,37.72357307468168 0 0,0 -0.46764209537190665,-0.44799054887412154 l 11.672120074281883 -11.976623453868957" fill="#ff0f01" stroke="none" /><line stroke="#e1ed5e" stroke-width="0.3" x1="26.387840678322732" x2="22.057713659400548" y1="142.50000000000003" y2="145.00000000000006" /><path d="M 25.521815274538298 143.00000000000003 a86.0,86.0 0 0,1 -11.493303480769221,-40.785679425670985" fill="none" id="id9" stroke="none" /><text fill="#e1ed5e" style="font-size:6.75px; font-family:Arial;" text-anchor="middle"><textPath startOffset="21.40746469413373" xlink:href="#id9">September</textPath></text><path d="M 81.1358732173502 109.22738970284198 l -34.342196898682 16.798489412577887 a59.23056021525626,59.23056021525626 0 0,0 -0.4389287491499188,-0.917192270365778 l 34.62550490579183 -16.206484640147007" fill="#89ff24" stroke="none" /><path d="M 80.9802524753101 108.90220220490708 l -34.62550490579183 16.206484640147007 a59.23056021525626,59.23056021525626 0 0,0 -0.423119247029833,-0.9245919156265386 l 34.89860861767672 -15.609703742305777" fill="#89ff24" stroke="none" /><path d="M 80.83023694016515 108.57439118712176 l -34.89860861767672 15.609703742305777 a59.23056021525626,59.23056021525626 0 0,0 -0.40718504972556036,-0.9317190794059369 l 35.16142754941925 -15.008322593123992" fill="#89ff24" stroke="none" /><path d="M 80.68587082218212 108.24405325689762 l -35.16142754941925 15.008322593123992 a59.23056021525626,59.23056021525626 0 0,0 -0.39113085311816675,-0.9385716612960908 l 35.4138842470739 -14.402518422386619" fill="#89ff24" stroke="none" /><path d="M 80.5471966667186 107.91128576633889 l -35.4138842470739 14.402518422386619 a59.23056021525626,59.23056021525626 0 0,0 -0.3749613884530915,-0.9451476418096686 l 35.65590431049311 -13.792469763363385" fill="#89ff24" stroke="none" /><path d="M 80.41425534168474 107.57618678355246 l -35.65590431049311 13.792469763363385 a59.23056021525626,59.23056021525626 0 0,0 -0.3586814209458102,-0.9514450829750787 l 35.88741641525336 -13.178356400194161" fill="#89ff24" stroke="none" /><path d="M 80.28708602549918 107.23885506374661 l -35.88741641525336 13.178356400194161 a59.23056021525626,59.23056021525626 0 0,0 -0.34229574837740384,-0.9574621289073535 l 36.10835233367471 -12.560359314905886" fill="#89ff24" stroke="none" /><path d="M 80.16572619554312 106.89939002012753 l -36.10835233367471 12.560359314905886 a59.23056021525626,59.23056021525626 0 0,0 -0.32580919968084954,-0.9631970063555882 l 36.31864695492793 -11.938660634076136" fill="#89ff24" stroke="none" /><path d="M 80.05021161711548 106.5578916946017 l -36.31864695492793 11.938660634076136 a59.23056021525626,59.23056021525626 0 0,0 -0.3092266335177163,-0.9686480252250318 l 36.5182383042229 -11.313443575159713" fill="#89ff24" stroke="none" /><path d="M 79.94057633289273 106.21446072829308 l -36.5182383042229 11.313443575159713 a59.23056021525626,59.23056021525626 0 0,0 -0.2925529368463326,-0.9738135790753967 l 36.70706756107286 -10.684892392493593" fill="#89ff24" stroke="none" /><path d="M 79.83685265289637 105.86919833188381 l -52.00167904485321 15.136930889365923 a75.15996030494637,75.15996030494637 0 0,0 -0.34996448829679705,-1.2419005078848464 l 52.253862025224585 -14.24202245757808" fill="#3fffba" stroke="none" /><path d="M 79.73907114497094 105.5222062557868 l -36.885079076629125 10.053192322996292 a59.23056021525626,59.23056021525626 0 0,0 -0.25895183264710603,-0.9832822870456657 l 37.05222039008096 -9.418529531577825" fill="#89ff24" stroke="none" /><path d="M 79.64726062577567 105.17358676015961 l -52.490645552614694 13.342916836401917 a75.15996030494637,75.15996030494637 0 0,0 -0.307126766700221,-1.2531820154030195 l 52.7119598458312 -12.439878996390798" fill="#3fffba" stroke="none" /><path d="M 79.56144815229197 104.8234425847677 l -37.20844224411615 8.781091056275859 a59.23056021525626,59.23056021525626 0 0,0 -0.22504549376343133,-0.9915919692019609 l 37.353698599437244 -8.14106475313487" fill="#89ff24" stroke="none" /><path d="M 79.48165901384964 104.47187691870673 l -37.353698599437244 8.14106475313487 a59.23056021525626,59.23056021525626 0 0,0 -0.20799033806800865,-0.9953090610053759 l 37.48794664832962 -7.498639240844086" fill="#89ff24" stroke="none" /><path d="M 79.407916724674 104.11899336999214 l -37.48794664832962 7.498639240844086 a59.23056021525626,59.23056021525626 0 0,0 -0.19087388666530275,-0.9987328306600977 l 37.61114682727708 -6.8540038451506735" fill="#89ff24" stroke="none" /><path d="M 79.34024301695615 103.76489593502545 l -37.61114682727708 6.8540038451506735 a59.23056021525626,59.23056021525626 0 0,0 -0.17370118385208388,-1.0018622691654946 l 37.7232628286214 -6.207348543064587" fill="#89ff24" stroke="none" /><path d="M 79.2786578344484 103.40968896794605 l -53.44128900721365 8.793743769341496 a75.15996030494637,75.15996030494637 0 0,0 -0.1985601166031175,-1.2748983860088092 l 53.58437061595503 -7.875057201401238" fill="#3fffba" stroke="none" /><path d="M 79.22317932658666 103.0534771498775 l -53.58437061595503 7.875057201401238 a75.15996030494637,75.15996030494637 0 0,0 -0.1766455322162697,-1.2781190752435145 l 53.71166066472651 -6.954049817957637" fill="#3fffba" stroke="none" /><path d="M 79.17382384314188 102.69636545807758 l -37.91411341039519 4.908741047970097 a59.23056021525626,59.23056021525626 0 0,0 -0.12189624962737527,-1.0094758104956933 l 37.99279174628222 -4.257171560551004" fill="#89ff24" stroke="none" /><path d="M 79.13060592940153 102.33845913500099 l -37.99279174628222 4.257171560551004 a59.23056021525626,59.23056021525626 0 0,0 -0.10454929329286494,-1.0114195731352102 l 38.06027343205675 -3.604347465132863" fill="#89ff24" stroke="none" /><path d="M 79.0935383218832 101.97986365728391 l -38.06027343205675 3.604347465132863 a59.23056021525626,59.23056021525626 0 0,0 -0.08717152580175681,-1.0130652657842156 l 38.11653858055625 -2.9504611519729855" fill="#89ff24" stroke="none" /><path d="M 79.06263194458094 101.62068470465958 l -38.11653858055625 2.9504611519729855 a59.23056021525626,59.23056021525626 0 0,0 -0.06976806846187955,-1.0144124034494786 l 38.1615706101832 -2.2957053243691634" fill="#89ff24" stroke="none" /><path d="M 79.03789590574601 101.26102812881392 l -38.1615706101832 2.2957053243691634 a59.23056021525626,59.23056021525626 0 0,0 -0.05234405015199615,-1.0154605891233461 l 38.195356249791764 -1.6402729418690867" fill="#89ff24" stroke="none" /><path d="M 79.01933749520258 100.90099992219065 l -38.195356249791764 1.6402729418690867 a59.23056021525626,59.23056021525626 0 0,0 -0.03490460581027764,-1.0162095139006908 l 38.21788554259889 -0.9843571634042759" fill="#89ff24" stroke="none" /><path d="M 79.00696218219943 100.54070618675478 l -38.21788554259889 0.9843571634042759 a59.23056021525626,59.23056021525626 0 0,0 -0.01745487492102114,-1.0166589570699938 l 38.22915184911858 -0.32815129036522983" fill="#89ff24" stroke="none" /><line stroke="#e1ed5e" stroke-width="0.3" x1="15.003131293944662" x2="10.003315487706104" y1="100.72959589197737" y2="100.7725132973878" /><path d="M 14.003168132696942 100.73817937305945 a86.0,86.0 0 0,1 10.791469493833604,-42.45332614584628" fill="none" id="id10" stroke="none" /><text fill="#e1ed5e" style="font-size:6.75px; font-family:Arial;" text-anchor="middle"><textPath startOffset="22.145653131862435" xlink:href="#id10">October</textPath></text><path d="M 79.00077361379809 100.18025310272382 l -38.22915184911858 0.32815129036522983 a59.23056021525626,59.23056021525626 0 0,0 0.0,-1.0168087861780808 l 38.22915184911858 0.3281512903652158" fill="#89ff24" stroke="none" /><path d="M 79.00077361379809 99.81974689727619 l -38.22915184911858 -0.3281512903652158 a59.23056021525626,59.23056021525626 0 0,0 0.01745487492102114,-1.0166589570699938 l 38.21788554259889 0.9843571634042619" fill="#89ff24" stroke="none" /><path d="M 79.00696218219943 99.45929381324524 l -54.14200451868176 -1.394505981489371 a75.15996030494637,75.15996030494637 0 0,0 0.0442918111465717,-1.2895077549276284 l 54.11008802053834 2.3237200009811376" fill="#3fffba" stroke="none" /><path d="M 79.01933749520258 99.09900007780938 l -54.11008802053834 -2.3237200009811376 a75.15996030494637,75.15996030494637 0 0,0 0.06642139998890816,-1.2885574151651122 l 54.06222503109286 3.252249209522962" fill="#3fffba" stroke="none" /><path d="M 79.03789590574601 98.7389718711861 l -38.1615706101832 -2.2957053243691496 a59.23056021525626,59.23056021525626 0 0,0 0.06976806846188613,-1.0144124034495303 l 38.116538580556245 2.950461151973005" fill="#89ff24" stroke="none" /><path d="M 79.06263194458094 98.37931529534042 l -38.116538580556245 -2.950461151973005 a59.23056021525626,59.23056021525626 0 0,0 0.08717152580175024,-1.013065265784163 l 38.06027343205675 3.604347465132849" fill="#89ff24" stroke="none" /><path d="M 79.0935383218832 98.0201363427161 l -38.06027343205675 -3.604347465132849 a59.23056021525626,59.23056021525626 0 0,0 0.10454929329287152,-1.0114195731352629 l 37.99279174628222 4.257171560551025" fill="#89ff24" stroke="none" /><path d="M 79.13060592940154 97.66154086499901 l -37.99279174628222 -4.257171560551025 a59.23056021525626,59.23056021525626 0 0,0 0.12189624962735555,-1.009475810495589 l 37.914113410395196 4.908741047970049" fill="#89ff24" stroke="none" /><path d="M 79.17382384314186 97.30363454192245 l -37.914113410395196 -4.908741047970049 a59.23056021525626,59.23056021525626 0 0,0 0.13920728257761159,-1.0072345507013318 l 37.82426161126238 5.558863906871449" fill="#89ff24" stroke="none" /><path d="M 79.22317932658666 96.9465228501225 l -37.82426161126238 -5.558863906871449 a59.23056021525626,59.23056021525626 0 0,0 0.15647729050271014,-1.0046964542616743 l 37.7232628286214 6.2073485430645725" fill="#89ff24" stroke="none" /><path d="M 79.2786578344484 96.59031103205396 l -37.7232628286214 -6.2073485430645725 a59.23056021525626,59.23056021525626 0 0,0 0.17370118385208388,-1.0018622691654946 l 37.61114682727708 6.85400384515066" fill="#89ff24" stroke="none" /><path d="M 79.34024301695615 96.23510406497455 l -37.81469365251294 -6.891096857210133 a59.437459228321195,59.437459228321195 0 0,0 0.1915406306337374,-1.002221516842166 l 37.69082672959705 7.539220939085614" fill="#86ff25" stroke="none" /><path d="M 79.407916724674 95.88100663000787 l -37.487946648329626 -7.498639240844072 a59.23056021525626,59.23056021525626 0 0,0 0.20799033806800865,-0.9953090610053759 l 37.35369859943725 8.141064753134858" fill="#89ff24" stroke="none" /><path d="M 79.48165901384962 95.52812308129327 l -37.35369859943725 -8.141064753134858 a59.23056021525626,59.23056021525626 0 0,0 0.2250454937634445,-0.9915919692020119 l 37.20844224411614 8.781091056275876" fill="#89ff24" stroke="none" /><path d="M 79.56144815229197 95.17655741523228 l -52.7119598458312 -12.439878996390824 a75.15996030494637,75.15996030494637 0 0,0 0.3071267667002043,-1.253182015402955 l 52.490645552614694 13.342916836401898" fill="#3fffba" stroke="none" /><path d="M 79.64726062577567 94.8264132398404 l -52.490645552614694 -13.342916836401898 a75.15996030494637,75.15996030494637 0 0,0 0.3285940465853971,-1.2477251168034253 l 52.25386202522457 14.242022457578107" fill="#3fffba" stroke="none" /><path d="M 79.73907114497095 94.47779374421319 l -36.88507907662911 -10.053192322996312 a59.23056021525626,59.23056021525626 0 0,0 0.2757930234816679,-0.9786921455942553 l 36.70706756107286 10.68489239249358" fill="#89ff24" stroke="none" /><path d="M 79.83685265289637 94.1308016681162 l -36.70706756107286 -10.68489239249358 a59.23056021525626,59.23056021525626 0 0,0 0.2925529368463326,-0.9738135790753967 l 36.518238304222905 11.3134435751597" fill="#89ff24" stroke="none" /><path d="M 79.94057633289273 93.78553927170692 l -36.518238304222905 -11.3134435751597 a59.23056021525626,59.23056021525626 0 0,0 0.3092266335177097,-0.9686480252250318 l 36.318646954927935 11.938660634076124" fill="#89ff24" stroke="none" /><path d="M 80.05021161711548 93.44210830539832 l -36.318646954927935 -11.938660634076124 a59.23056021525626,59.23056021525626 0 0,0 0.3258091996808561,-0.9631970063555882 l 36.108352333674716 12.560359314905874" fill="#89ff24" stroke="none" /><path d="M 80.16572619554312 93.10060997987247 l -51.15349913937251 -17.79384236278332 a75.15996030494637,75.15996030494637 0 0,0 0.4343523810529651,-1.2149609144441347 l 50.8405065882756 18.669338233608375" fill="#3fffba" stroke="none" /><path d="M 80.28708602549916 92.7611449362534 l -35.88741641525337 -13.178356400194149 a59.23056021525626,59.23056021525626 0 0,0 0.3586814209458102,-0.9514450829750787 l 35.65590431049312 13.792469763363373" fill="#89ff24" stroke="none" /><path d="M 80.41425534168474 92.42381321644754 l -35.65590431049312 -13.792469763363373 a59.23056021525626,59.23056021525626 0 0,0 0.37496138845307175,-0.9451476418096193 l 35.413884247073916 14.402518422386574" fill="#89ff24" stroke="none" /><path d="M 80.5471966667186 92.08871423366112 l -35.413884247073916 -14.402518422386574 a59.23056021525626,59.23056021525626 0 0,0 0.39113085311818646,-0.9385716612961401 l 35.16142754941925 15.008322593123978" fill="#89ff24" stroke="none" /><path d="M 80.68587082218212 91.75594674310238 l -35.16142754941925 -15.008322593123978 a59.23056021525626,59.23056021525626 0 0,0 0.40718504972553404,-0.9317190794058876 l 34.89860861767674 15.609703742305733" fill="#89ff24" stroke="none" /><path d="M 80.83023694016515 91.42560881287825 l -34.89860861767674 -15.609703742305733 a59.23056021525626,59.23056021525626 0 0,0 0.4231192470298593,-0.924591915626588 l 34.625504905791836 16.206484640146993" fill="#89ff24" stroke="none" /><path d="M 80.9802524753101 91.09779779509293 l -34.625504905791836 -16.206484640146993 a59.23056021525626,59.23056021525626 0 0,0 0.43892874914993857,-0.9171922703658273 l 34.34219689868199 16.798489412577908" fill="#89ff24" stroke="none" /><path d="M 81.1358732173502 90.77261029715801 l -48.65144560646615 -23.797860001152035 a75.15996030494637,75.15996030494637 0 0,0 0.5768709011882444,-1.1541282328733697 l 48.23575479206616 24.629520090189175" fill="#3fffba" stroke="none" /><path d="M 81.29705330413844 90.45014215332179 l -34.04876808851729 -17.38554359307471 a59.23056021525626,59.23056021525626 0 0,0 0.47015506942748403,-0.9015843378967903 l 33.74530495011487 17.96747417407599" fill="#89ff24" stroke="none" /><path d="M 81.46374523516351 90.13048839642627 l -33.74530495011487 -17.96747417407599 a59.23056021525626,59.23056021525626 0 0,0 0.48556268504496974,-0.8933806504177578 l 33.43189691545455 18.544109657968367" fill="#89ff24" stroke="none" /><path d="M 81.63589988554816 89.8137432299009 l -33.43189691545455 -18.544109657968367 a59.23056021525626,59.23056021525626 0 0,0 0.5008272031105825,-0.8849136795606636 l 33.108636347322594 19.115280107628134" fill="#89ff24" stroke="none" /><line stroke="#e1ed5e" stroke-width="0.3" x1="26.387840678322718" x2="22.05771365940052" y1="57.49999999999999" y2="54.99999999999999" /><path d="M 25.521815274538284 56.99999999999999 a86.0,86.0 0 0,1 29.574782752854787,-30.34633250058573" fill="none" id="id11" stroke="none" /><text fill="#e1ed5e" style="font-size:6.75px; font-family:Arial;" text-anchor="middle"><textPath startOffset="21.40746469413373" xlink:href="#id11">November</textPath></text><path d="M 81.81346652052679 89.5 l -33.108636347322594 -19.115280107628134 a59.23056021525626,59.23056021525626 0 0,0 0.5159441251005488,-0.8761859205803116 l 32.77561851209227 19.68081719650202" fill="#89ff24" stroke="none" /><path d="M 81.99639281039701 89.18935116829357 l -32.77561851209227 -19.68081719650202 a59.23056021525626,59.23056021525626 0 0,0 0.5309089959888144,-0.8671999455876951 l 32.432941551648064 20.240554258214257" fill="#89ff24" stroke="none" /><path d="M 82.18462484594161 88.88188828441811 l -32.432941551648064 -20.240554258214257 a59.23056021525626,59.23056021525626 0 0,0 0.5457174055590241,-0.857958402790593 l 32.08070645446315 20.79432633568352" fill="#89ff24" stroke="none" /><path d="M 82.37810715431573 88.57770195909679 l -32.08070645446315 -20.79432633568352 a59.23056021525626,59.23056021525626 0 0,0 0.5603649897050278,-0.8484640157142361 l 31.719017025837392 21.34197022973682" fill="#89ff24" stroke="none" /><path d="M 82.576782715395 88.27688183743585 l -31.719017025837392 -21.34197022973682 a59.23056021525626,59.23056021525626 0 0,0 0.5748474317165623,-0.8387195823980924 l 31.347979857305514 21.883324547204946" fill="#89ff24" stroke="none" /><path d="M 82.78059297857968 87.97951657250589 l -31.347979857305514 -21.883324547204946 a59.23056021525626,59.23056021525626 0 0,0 0.5891604635513499,-0.828727974571207 l 30.967704295224195 22.418229748485675" fill="#89ff24" stroke="none" /><path d="M 82.98947788004972 87.6856937992154 l -30.967704295224195 -22.418229748485675 a59.23056021525626,59.23056021525626 0 0,0 0.6032998670934442,-0.8184921368065734 l 30.57830240854693 22.94652819456111" fill="#89ff24" stroke="none" /><path d="M 83.2033758604659 87.39550010848427 l -30.57830240854693 -22.94652819456111 a59.23056021525626,59.23056021525626 0 0,0 0.6172614753955,-0.8080150856522583 l 30.179888955797125 23.468064193454254" fill="#89ff24" stroke="none" /><path d="M 83.42222388311158 87.10902102172516 l -30.179888955797125 -23.468064193454254 a59.23056021525626,59.23056021525626 0 0,0 0.6310411739075807,-0.7972999087434949 l 29.772581351247982 23.982684046112432" fill="#89ff24" stroke="none" /><path d="M 83.64595745247003 86.82634096563983 l -35.61144602923865 -28.686060119157787 a66.72816564715134,66.72816564715134 0 0,0 0.7262349764299061,-0.8858885870890859 l 35.113764233570116 29.293150987945367" fill="#31ff3d" stroke="none" /><path d="M 83.8745106332314 86.54754324733833 l -41.58837447628678 -34.694501129912574 a75.15996030494637,75.15996030494637 0 0,0 0.8350108259873076,-0.983640653408191 l 40.986669086792354 35.40330856577032" fill="#3fffba" stroke="none" /><path d="M 84.10781606972428 86.27271002978789 l -28.931766414206372 -24.990570752308464 a59.23056021525626,59.23056021525626 0 0,0 0.671248476512636,-0.7637575468880891 l 28.498506873735142 25.48354057700785" fill="#89ff24" stroke="none" /><path d="M 84.34580500576568 86.00192230759919 l -28.498506873735142 -25.48354057700785 a59.23056021525626,59.23056021525626 0 0,0 0.6842604804116894,-0.7521221327656369 l 28.056848692481587 25.96900028533115" fill="#89ff24" stroke="none" /><path d="M 84.58840730492382 85.73525988315684 l -28.056848692481587 -25.96900028533115 a59.23056021525626,59.23056021525626 0 0,0 0.6970708296063366,-0.7402650647983277 l 27.60692202913898 26.446806810073987" fill="#89ff24" stroke="none" /><path d="M 84.83555147118756 85.47280134310135 l -31.16650564230894 -29.856807390451877 a64.159935374171,64.159935374171 0 0,0 0.7687374560691881,-0.7887923520005652 l 30.64938138508895 30.387422434520175" fill="#45ff2d" stroke="none" /><path d="M 85.08716467003674 85.21462403516908 l -27.148859479160052 -26.916819339460528 a59.23056021525626,59.23056021525626 0 0,0 0.7220715233492172,-0.715900008951728 l 26.682796035680855 27.37889935864093" fill="#89ff24" stroke="none" /><path d="M 85.34317274990677 84.96080404539775 l -26.682796035680855 -27.37889935864093 a59.23056021525626,59.23056021525626 0 0,0 0.7342545000782523,-0.7033992015662146 l 26.208869049737306 27.832910690512712" fill="#89ff24" stroke="none" /><path d="M 85.60350026404147 84.71141617570332 l -26.208869049737306 -27.832910690512712 a59.23056021525626,59.23056021525626 0 0,0 0.7462210886358577,-0.6906910992073614 l 25.727218189787493 28.27871953585244" fill="#89ff24" stroke="none" /><path d="M 85.86807049272753 84.46653392183569 l -36.44689243553228 -40.06151934245762 a75.15996030494637,75.15996030494637 0 0,0 0.9618147579287949,-0.860060687384036 l 35.75381265078009 40.68127555972506" fill="#3fffba" stroke="none" /><path d="M 86.13680546590413 84.22622945171909 l -27.31581611958529 -31.08038444888431 a62.3780631224982,62.3780631224982 0 0,0 0.810381696784087,-0.6999884085858739 l 26.778254943038352 31.544716989934894" fill="#5dff2a" stroke="none" /><path d="M 86.40962598614128 83.9905735841838 l -35.050196053331575 -41.289042818360244 a75.15996030494637,75.15996030494637 0 0,0 0.9907717169419651,-0.8265370042901887 l 34.3362500022277 41.884642006562316" fill="#3fffba" stroke="none" /><path d="M 86.68645165197937 83.75963576809568 l -34.3362500022277 -41.884642006562316 a75.15996030494637,75.15996030494637 0 0,0 1.0048143312259055,-0.8094072981611443 l 33.61218490064655 42.46789759851686" fill="#3fffba" stroke="none" /><path d="M 86.96720088162412 83.53348406188908 l -23.72624816516227 -29.97733948130602 a59.23056021525626,59.23056021525626 0 0,0 0.8026870671878693,-0.6241743184546098 l 23.208151153339156 30.380214851381435" fill="#89ff24" stroke="none" /><path d="M 87.25179093698888 83.31218511350988 l -32.87821413389714 -43.038637706123694 a75.15996030494637,75.15996030494637 0 0,0 1.0320071384532277,-0.7744373962658749 l 32.13455400653316 43.59669412965357" fill="#3fffba" stroke="none" /><path d="M 87.54013794807813 83.09580414077388 l -32.13455400653316 -43.59669412965357 a75.15996030494637,75.15996030494637 0 0,0 1.0451493175515771,-0.7566075062902684 l 31.38142367860761 44.14190240731692" fill="#3fffba" stroke="none" /><path d="M 87.83215693770416 82.88440491214696 l -9.22983049370812 -12.982912472740269 a36.929400089690105,36.929400089690105 0 0,0 0.5198339022152563,-0.3628844360816273 l 9.005601500319097 13.139441724627023" fill="#ff0000" stroke="none" /><path d="M 88.12776184653039 82.6780497279521 l -30.619045101084936 -44.674101863731885 a75.15996030494637,75.15996030494637 0 0,0 1.0705058625567807,-0.7202841194869127 l 29.847642950431165 45.19313565727591" fill="#3fffba" stroke="none" /><path d="M 88.4268655584334 82.4767994020092 l -21.068924435598472 -31.9010369345477 a59.23056021525626,59.23056021525626 0 0,0 0.8532426416466857,-0.5530615717302403 l 20.51819616169476 32.25801234798185" fill="#89ff24" stroke="none" /><path d="M 88.72937992617638 82.28071324371311 l -20.51819616169476 -32.25801234798185 a59.23056021525626,59.23056021525626 0 0,0 0.862610951700339,-0.5383330322911574 l 19.961421081204723 32.60548117711454" fill="#89ff24" stroke="none" /><line stroke="#e1ed5e" stroke-width="0.3" x1="56.869717070023135" x2="54.33264160355391" y1="26.7553504044142" y2="22.446841604673864" /><path d="M 56.362301976729285 25.89364864446614 a86.0,86.0 0 0,1 42.16139366436587,-11.88097634709845" fill="none" id="id12" stroke="none" /><text fill="#e1ed5e" style="font-size:6.75px; font-family:Arial;" text-anchor="middle"><textPath startOffset="22.145653131862474" xlink:href="#id12">December</textPath></text><path d="M 89.34428304082924 81.90426304109057 l -20.657510229902577 -35.08096853347618 a61.711264806503806,61.711264806503806 0 0,0 0.9174629376405676,-0.5296974740182837 l 20.05225482440161 35.430412904770634" fill="#66ff29" stroke="none" /><path d="M 89.65649057296885 81.72400993836675 l -7.845995237840977 -13.863121796521728 a36.929400089690105,36.929400089690105 0 0,0 0.5543908574373024,-0.30751126326128686 l 7.606860192247573 13.99576597521616" fill="#ff0000" stroke="none" /><path d="M 89.97174638481275 81.54914285379989 l -25.86332465364175 -47.585604315734955 a75.15996030494637,75.15996030494637 0 0,0 1.1388923797177137,-0.6063960438312789 l 25.042643458137476 48.02257082728881" fill="#3fffba" stroke="none" /><path d="M 90.28995756902619 81.37971332152246 l -17.677160088097043 -33.898285289850925 a59.23056021525626,59.23056021525626 0 0,0 0.9055866917987279,-0.46239901739307915 l 17.092646174584733 34.19674225891684" fill="#89ff24" stroke="none" /><path d="M 90.61103034731259 81.2157712731953 l -21.032976863145034 -42.080043158923374 a68.04376842879881,68.04376842879881 0 0,0 1.0492989051072756,-0.5132646755266473 l 20.307517708775706 42.434901584547234" fill="#33ff52" stroke="none" /><path d="M 90.93487009805054 81.0573650232925 l -27.195389705848363 -56.827904930122465 a84.0,84.0 0 0,0 1.3060451445139099,-0.6112950737178284 l 26.215855847462933 57.286376235410835" fill="#4dd2ff" stroke="none" /><path d="M 91.26138138417902 80.90454125486306 l -6.628616769648872 -14.484723916545628 a36.929400089690105,36.929400089690105 0 0,0 0.5787128861952154,-0.2588509130643807 l 6.378990480598038 14.596378580519854" fill="#ff0000" stroke="none" /><path d="M 91.5904679813234 80.7573450057729 l -21.68856763403333 -49.62768717376751 a75.15996030494637,75.15996030494637 0 0,0 1.1866860280334723,-0.5065257006544205 l 20.833446530829427 49.99268752408133" fill="#3fffba" stroke="none" /><path d="M 91.92203290615298 80.6158196554323 l -14.705962257056067 -35.288955899351535 a59.23056021525626,59.23056021525626 0 0,0 0.9418943497655138,-0.38306023224663976 l 14.098013446100111 35.53620338817746" fill="#89ff24" stroke="none" /><path d="M 92.25597844496254 80.48000691201159 l -14.098013446100111 -35.53620338817746 a59.23056021525626,59.23056021525626 0 0,0 0.9483312977341135,-0.3668349184401311 l 13.48590988587247 35.77297819475564" fill="#89ff24" stroke="none" /><path d="M 92.592206182469 80.34994680014964 l -13.48590988587247 -35.77297819475564 a59.23056021525626,59.23056021525626 0 0,0 0.954488768116485,-0.3505014966994129 l 12.869831966101858 35.99921054046377" fill="#89ff24" stroke="none" /><path d="M 92.93061703081487 80.22567764915836 l -12.869831966101858 -35.99921054046377 a59.23056021525626,59.23056021525626 0 0,0 0.9603649462778839,-0.33406478055884353 l 12.24996124777897 36.2148337535912" fill="#89ff24" stroke="none" /><path d="M 93.27111125876988 80.10723608172694 l -12.24996124777897 -36.2148337535912 a59.23056021525626,59.23056021525626 0 0,0 0.9659581004814479,-0.3175296139940579 l 11.62648040964976 36.41978428898729" fill="#89ff24" stroke="none" /><path d="M 93.61358852112211 79.99465700312896 l -11.62648040964976 -36.41978428898729 a59.23056021525626,59.23056021525626 0 0,0 0.9712665823992989,-0.3009008699946521 l 10.999573194378845 36.61400174678858" fill="#89ff24" stroke="none" /><path d="M 93.95794788825049 79.88797359093562 l -10.999573194378845 -36.61400174678858 a59.23056021525626,59.23056021525626 0 0,0 0.97628882759706,-0.28418344912768195 l 10.369424354400161 36.79742889021878" fill="#89ff24" stroke="none" /><path d="M 94.30408787586887 79.78721728523814 l -10.369424354400161 -36.79742889021878 a59.23056021525626,59.23056021525626 0 0,0 0.981023355996412,-0.26738227809390813 l 9.736219597469072 36.97001166245683" fill="#89ff24" stroke="none" /><path d="M 94.6519064749342 79.69241777938228 l -9.736219597469072 -36.97001166245683 a59.23056021525626,59.23056021525626 0 0,0 0.9854687723098118,-0.250502308275499 l 9.100145531933881 37.13169920256759" fill="#89ff24" stroke="none" /><path d="M 95.00130118170881 79.60360301121753 l -9.100145531933881 -37.13169920256759 a59.23056021525626,59.23056021525626 0 0,0 0.989623766452656,-0.23354851427701318 l 8.46138961174132 37.28244386049084" fill="#89ff24" stroke="none" /><path d="M 95.35216902796891 79.52079915486377 l -8.46138961174132 -37.28244386049084 a59.23056021525626,59.23056021525626 0 0,0 0.9934871139294122,-0.21652589245945086 l 7.820140081192789 37.422201211084" fill="#89ff24" stroke="none" /><path d="M 95.70440661134978 79.44403061299748 l -7.820140081192789 -37.422201211084 a59.23056021525626,59.23056021525626 0 0,0 0.9970576761934379,-0.19943945946748606 l 7.1765859194683745 37.55093006721435" fill="#89ff24" stroke="none" /><path d="M 96.05791012581881 79.37332000966035 l -7.1765859194683745 -37.55093006721435 a59.23056021525626,59.23056021525626 0 0,0 1.0003344009840534,-0.18229425075145117 l 6.530916784933282 37.668592491897165" fill="#89ff24" stroke="none" /><path d="M 96.41257539226777 79.30868818359171 l -6.530916784933282 -37.668592491897165 a59.23056021525626,59.23056021525626 0 0,0 1.003316322635061,-0.16509531908296263 l 5.883322959245149 37.775153809475796" fill="#89ff24" stroke="none" /><path d="M 96.76829788921471 79.25015418208739 l -5.883322959245149 -37.775153809475796 a59.23056021525626,59.23056021525626 0 0,0 1.0060025623606756,-0.1478477330661672 l 5.233995291276788 37.87058261584085" fill="#89ff24" stroke="none" /><path d="M 97.12497278360702 79.19773525538626 l -5.233995291276788 -37.87058261584085 a59.23056021525626,59.23056021525626 0 0,0 1.0083923285136618,-0.130556575643839 l 4.583125140872332 37.95485078768508" fill="#89ff24" stroke="none" /><path d="M 97.48249496171623 79.15144685158666 l -4.583125140872332 -37.95485078768508 a59.23056021525626,59.23056021525626 0 0,0 1.0104849168189691,-0.11322694259940624 l 3.9309043224525637 38.02793349079146" fill="#89ff24" stroke="none" /><path d="M 98.1996594967304 79.07731436759882 l -2.7879499337833433 -32.40020424885578 a53.51993081482269,53.51993081482269 0 0,0 0.9160344063015501,-0.07090685645421929 l 2.2313465327065765 32.443288872305054" fill="#deff1b" stroke="none" /><path d="M 98.5590905019552 79.04949213459386 l -3.716171486529861 -54.03231782661251 a75.15996030494637,75.15996030494637 0 0,0 1.2879398194872989,-0.07747926130364724 l 2.7880873149100784 54.08814906574086" fill="#3fffba" stroke="none" /><path d="M 98.9189461498227 79.02784411241856 l -0.8200256808559052 -15.908279136982602 a36.929400089690105,36.929400089690105 0 0,0 0.6333818375605781,-0.027200141379165772 l 0.546818082694507 15.920011846787597" fill="#ff0000" stroke="none" /><path d="M 99.27912038922189 79.0123766808444 l -0.546818082694507 -15.920011846787597 a36.929400089690105,36.929400089690105 0 0,0 0.6337554338894756,-0.016323291891703492 l 0.27344933473428745 15.927052856029345" fill="#ff0000" stroke="none" /></svg>