<?xml version="1.0" encoding="utf-8" ?>
<svg baseProfile="full" height="200mm" version="1.1" viewBox="0,0,200,200" width="200mm" xmlns="http://www.w3.org/2000/svg" xmlns:ev="http://www.w3.org/2001/xml-events" xmlns:xlink="http://www.w3.org/1999/xlink"><defs /><rect fill="#1a1a1a" height="200" width="200" x="0" y="0" /><text alignment-baseline="middle" fill="#e1ed5e" style="dominant-baseline: central; font-size:9.0px; font-family:Arial;" text-anchor="middle" x="100.0" y="100.0">2022</text><line stroke="#e1ed5e" stroke-width="0.3" x1="100.0" x2="100.0" y1="15.0" y2="10.0" /><path d="M 100.0 14.0 a86.0,86.0 0 0,1 42.46469731375804,11.215312516191453" fill="none" id="id25" stroke="none" /><text fill="#e1ed5e" style="font-size:6.75px; font-family:Arial;" text-anchor="middle"><textPath startOffset="22.20632615414155" xlink:href="#id25">January</textPath></text><path d="M 107.08798089147638 80.2323363322302 l 20.235653763480254 -56.435196964900086 a80.9534247537413,80.9534247537413 0 0,0 1.307658688843279,0.4816217308866201 l -21.20409477809611 56.078511966207145" fill="#ff0000" stroke="none" /><path d="M 107.4271985657038 80.35727306442388 l 21.20409477809611 -56.078511966207145 a80.9534247537413,80.9534247537413 0 0,0 1.2991746187115953,0.5040595681713947 l -22.166252561807372 55.7052096941452" fill="#ff0000" stroke="none" /><line stroke="#e1ed5e" stroke-width="0.3" x1="143.23703022742887" x2="145.7803849466894" y1="26.81831364943548" y2="22.513508569990506" /><path d="M 143.74570117128098 25.957352633546492 a86.0,86.0 0 0,1 28.547481713284135,27.462654790039103" fill="none" id="id26" stroke="none" /><text fill="#e1ed5e" style="font-size:6.75px; font-family:Arial;" text-anchor="middle"><textPath startOffset="19.985693538727396" xlink:href="#id26">February</textPath></text><line stroke="#e1ed5e" stroke-width="0.3" x1="172.23445277983987" x2="176.4835382374775" y1="55.19839476539836" y2="52.563006222186495" /><path d="M 173.08426987136738 54.67131705675599 a86.0,86.0 0 0,1 12.851231095245387,41.99856678651699" fill="none" id="id27" stroke="none" /><text fill="#e1ed5e" style="font-size:6.75px; font-family:Arial;" text-anchor="middle"><textPath startOffset="22.20632615414155" xlink:href="#id27">March</textPath></text><path d="M 118.3937258080291 89.86733742301442 l 52.51270743679153 -28.927991588778852 a80.9534247537413,80.9534247537413 0 0,0 0.6618593986068965,1.2263249465966657 l -53.00287493461689 28.019785658849727" fill="#ff0000" stroke="none" /><path d="M 118.56541770881063 90.18545643968196 l 53.00287493461689 -28.019785658849727 a80.9534247537413,80.9534247537413 0 0,0 0.6406521689263874,1.2375360748759803 l -53.47733653670339 27.1032768617134" fill="#ff0000" stroke="none" /><path d="M 119.04729006885535 91.15688171328212 l 54.37858437646683 -25.246439371008297 a80.9534247537413,80.9534247537413 0 0,0 0.575916861528142,1.2689564637043709 l -54.80510355495832 24.306660898461864" fill="#ff0000" stroke="none" /><path d="M 119.61058180528143 92.48833698450437 l 55.98674003047754 -21.445234446427573 a80.9534247537413,80.9534247537413 0 0,0 0.48724483018818326,1.3055739020156678 l -56.34758944916735 20.478337407382572" fill="#ff0000" stroke="none" /><path d="M 119.85752413597 93.16781622104841 l 56.6917418610228 -19.505372195005027 a80.9534247537413,80.9534247537413 0 0,0 0.44201613146225505,1.3215719721970032 l -57.01909528625683 18.52662711988571" fill="#ff0000" stroke="none" /><path d="M 120.08093135843002 93.85539295169968 l 57.32955272298467 -17.5423922053134 a80.9534247537413,80.9534247537413 0 0,0 0.39626355587124523,1.3360037172320367 l -57.62302217596763 16.552959101334835" fill="#ff0000" stroke="none" /><line stroke="#e1ed5e" stroke-width="0.3" x1="184.98032266829074" x2="189.97916517819016" y1="98.17113171792111" y2="98.06355123074" /><path d="M 185.9800911702706 98.14961562048488 a86.0,86.0 0 0,1 -9.607161424134198,41.387399972396054" fill="none" id="id28" stroke="none" /><text fill="#e1ed5e" style="font-size:6.75px; font-family:Arial;" text-anchor="middle"><textPath startOffset="21.466115282336823" xlink:href="#id28">April</textPath></text><line stroke="#e1ed5e" stroke-width="0.3" x1="174.80103733775053" x2="179.2010983576182" y1="140.37084112569926" y2="142.7455964860345" /><path d="M 175.68104954172406 140.8457921977663 a86.0,86.0 0 0,1 -30.038265399797805,32.042727171017184" fill="none" id="id29" stroke="none" /><text fill="#e1ed5e" style="font-size:6.75px; font-family:Arial;" text-anchor="middle"><textPath startOffset="22.206326154141568" xlink:href="#id29">May</textPath></text><path d="M 117.35343817320211 111.8261652097733 l 49.5427642731321 33.76281457283125 a80.9534247537413,80.9534247537413 0 0,0 -0.7946507400406905,1.1447536588813858 l -48.95425262592927 -34.61060949389965" fill="#ff0000" stroke="none" /><path d="M 117.14729908036423 112.12312394758627 l 48.95425262592927 34.61060949389965 a80.9534247537413,80.9534247537413 0 0,0 -0.8142380563995835,1.1309054450661065 l -48.35123477715409 -35.448148544416895" fill="#ff0000" stroke="none" /><path d="M 116.93607887273984 112.41649034213515 l 48.35123477715409 35.448148544416895 a80.9534247537413,80.9534247537413 0 0,0 -0.8335840964496761,1.1167221195605075 l -47.73388941400932 -36.27518354348672" fill="#ff0000" stroke="none" /><path d="M 115.80600337817218 113.82643327865902 l 45.12495400907745 39.4734298659385 a80.9534247537413,80.9534247537413 0 0,0 -0.9264971062009938,1.0409293205452042 l -44.43879805322812 -40.244333356224566" fill="#ff0000" stroke="none" /><line stroke="#e1ed5e" stroke-width="0.3" x1="143.8653032363475" x2="146.44561519142675" y1="172.8068346515853" y2="177.08958963109032" /><path d="M 144.38136562736335 173.6633856474863 a86.0,86.0 0 0,1 -40.68145358897372,12.25698825130547" fill="none" id="id30" stroke="none" /><text fill="#e1ed5e" style="font-size:6.75px; font-family:Arial;" text-anchor="middle"><textPath startOffset="21.466115282336833" xlink:href="#id30">June</textPath></text><line stroke="#e1ed5e" stroke-width="0.3" x1="102.19456741930631" x2="102.32365962044197" y1="184.97166512339345" y2="189.96999836594603" /><path d="M 102.22038585953345 185.97133177190398 a86.0,86.0 0 0,1 -42.740103519485714,-10.115201625700543" fill="none" id="id31" stroke="none" /><text fill="#e1ed5e" style="font-size:6.75px; font-family:Arial;" text-anchor="middle"><textPath startOffset="22.20632615414155" xlink:href="#id31">July</textPath></text><path d="M 94.11515582081647 120.15858648285463 l -16.80078869924632 57.551252278171994 a80.9534247537413,80.9534247537413 0 0,0 -1.334286010097064,-0.4020094295272062 l 17.78894968378363 -57.253527479539066" fill="#ff0000" stroke="none" /><path d="M 93.76903079525671 120.05430185196036 l -17.78894968378363 57.253527479539066 a80.9534247537413,80.9534247537413 0 0,0 -1.327168389738087,-0.4249174077977404 l 18.771839418612657 -56.93883722508162" fill="#ff0000" stroke="none" /><path d="M 93.42475214034765 119.94407469862007 l -18.771839418612657 56.93883722508162 a80.9534247537413,80.9534247537413 0 0,0 -1.319657500742593,-0.4476994738698602 l 19.749166652292477 -56.60727476431364" fill="#ff0000" stroke="none" /><path d="M 93.08242187328487 119.8279376855182 l -19.749166652292477 56.60727476431364 a80.9534247537413,80.9534247537413 0 0,0 -1.311755568749117,-0.47034887692574884 l 20.72064178167132 -56.258938346347925" fill="#ff0000" stroke="none" /><path d="M 92.7421414339146 119.70592522655815 l -20.72064178167132 56.258938346347925 a80.9534247537413,80.9534247537413 0 0,0 -1.303464935270552,-0.49285890545842004 l 21.685976937702154 -55.89393119078287" fill="#ff0000" stroke="none" /><path d="M 92.40401165467489 119.57807347666478 l -21.685976937702154 55.89393119078287 a80.9534247537413,80.9534247537413 0 0,0 -1.2947880570006207,-0.5152228892606461 l 22.644886070744633 -55.512361457116164" fill="#ff0000" stroke="none" /><path d="M 92.06813273071674 119.44442032107085 l -22.644886070744633 55.512361457116164 a80.9534247537413,80.9534247537413 0 0,0 -1.2857275050855879,-0.5374342014013658 l 23.597085035327684 -55.11434221269482" fill="#ff0000" stroke="none" /><path d="M 91.7346041902142 119.30500536409082 l -23.597085035327684 55.11434221269482 a80.9534247537413,80.9534247537413 0 0,0 -1.2762859643625626,-0.5594862601894378 l 24.54229167434799 -54.69999139921093" fill="#ff0000" stroke="none" /><path d="M 91.40352486487194 119.15986991738527 l -24.54229167434799 54.69999139921093 a80.9534247537413,80.9534247537413 0 0,0 -1.2664662325637157,-0.5813725311238948 l 25.480225902679123 -54.269431797752965" fill="#ff0000" stroke="none" /><path d="M 90.7491055286396 118.85261126421891 l -26.41060979016698 53.82279099242305 a80.9534247537413,80.9534247537413 0 0,0 -1.245703946136628,-0.6246218189826216 l 27.33316764398637 -53.36020133253113" fill="#ff0000" stroke="none" /><path d="M 90.42595943632237 118.69057910512821 l -27.33316764398637 53.36020133253113 a80.9534247537413,80.9534247537413 0 0,0 -1.2347675438219108,-0.6459720202095037 l 28.247626090334776 -52.88179989337691" fill="#ff0000" stroke="none" /><path d="M 90.10565033884886 118.52300852407294 l -28.247626090334776 52.88179989337691 a80.9534247537413,80.9534247537413 0 0,0 -1.2234652532355241,-0.6671308059855862 l 29.15371415543894 -52.38772843563156" fill="#ff0000" stroke="none" /><line stroke="#e1ed5e" stroke-width="0.3" x1="58.666819895761336" x2="56.23545636021788" y1="174.27360380694188" y2="178.64263932499728" /><path d="M 58.180547188652646 175.14741091055294 a86.0,86.0 0 0,1 -31.652253787137756,-30.449443065178592" fill="none" id="id32" stroke="none" /><text fill="#e1ed5e" style="font-size:6.75px; font-family:Arial;" text-anchor="middle"><textPath startOffset="22.20632615414155" xlink:href="#id32">August</textPath></text><path d="M 89.7882731507175 118.34994917583269 l -29.15371415543894 52.38772843563156 a80.9534247537413,80.9534247537413 0 0,0 -1.2118004234899926,-0.6880919065059621 l 30.051163345850142 -51.87813336333096" fill="#ff0000" stroke="none" /><path d="M 89.4739219176387 118.17145234162733 l -30.051163345850142 51.87813336333096 a80.9534247537413,80.9534247537413 0 0,0 -1.199776511126218,-0.7088491105442128 l 30.93970772800474 -51.353165680493" fill="#ff0000" stroke="none" /><path d="M 89.1626897886671 117.98757091392108 l -30.93970772800474 51.353165680493 a80.9534247537413,80.9534247537413 0 0,0 -1.1873970790889066,-0.7293962672928056 l 31.819084007025957 -50.812980946371816" fill="#ff0000" stroke="none" /><path d="M 88.8546689885994 117.79835938074946 l -31.819084007025957 50.812980946371816 a80.9534247537413,80.9534247537413 0 0,0 -1.1746657956709536,-0.7497272881857412 l 32.68903160474383 -50.25773922936227" fill="#ff0000" stroke="none" /><path d="M 88.54995079064634 117.60387380957326 l -32.68903160474383 50.25773922936227 a80.9534247537413,80.9534247537413 0 0,0 -1.1615864334263302,-0.7698361487027232 l 33.549292736910125 -49.68760505956823" fill="#ff0000" stroke="none" /><path d="M 87.65650970185807 116.9893568818739 l -35.23973889467563 48.50333949675637 a80.9534247537413,80.9534247537413 0 0,0 -1.1202991395012885,-0.8287705208332515 l 36.06942300459548 -47.88955902718335" fill="#ff0000" stroke="none" /><path d="M 87.36589467227662 116.77436683061367 l -36.06942300459548 47.88955902718335 a80.9534247537413,80.9534247537413 0 0,0 -1.1058672329482195,-0.8479318376267464 l 36.888418966037186 -47.26158784772924" fill="#ff0000" stroke="none" /><path d="M 87.07902340077011 116.55440617244103 l -36.888418966037186 47.26158784772924 a80.9534247537413,80.9534247537413 0 0,0 -1.0911076340674108,-0.8668418939168561 l 37.696484092821954 -46.61961203980725" fill="#ff0000" stroke="none" /><path d="M 86.79598089348748 116.32954008644616 l -37.696484092821954 46.61961203980725 a80.9534247537413,80.9534247537413 0 0,0 -1.07602471644662,-0.8854950862458243 l 38.49337893781327 -45.96382183470425" fill="#ff0000" stroke="none" /><path d="M 86.51685102203217 116.09983520530335 l -38.49337893781327 45.96382183470425 a80.9534247537413,80.9534247537413 0 0,0 -1.0606229494797963,-0.9038858872701859 l 39.27886736387012 -45.294411557211106" fill="#ff0000" stroke="none" /><path d="M 85.97065885151581 115.62618273729859 l -40.05271661381969 44.61157956804009 a80.9534247537413,80.9534247537413 0 0,0 -1.0288812161416494,-0.9398585964072126 l 40.814697379428196 -43.91552820504631" fill="#ff0000" stroke="none" /><path d="M 85.70375840098266 115.38237550388516 l -40.814697379428196 43.91552820504631 a80.9534247537413,80.9534247537413 0 0,0 -1.012550655530821,-0.9574298450297104 l 41.56458386934983 -43.206463723270666" fill="#ff0000" stroke="none" /><path d="M 85.44109423537348 115.13401014063109 l -41.56458386934983 43.206463723270666 a80.9534247537413,80.9534247537413 0 0,0 -0.9959200543081725,-0.9747173865261424 l 42.3021538760338 -42.484596233821954" fill="#ff0000" stroke="none" /><path d="M 85.18274418774928 114.88116024355367 l -42.3021538760338 42.484596233821954 a80.9534247537413,80.9534247537413 0 0,0 -0.9789943404797172,-0.9917160982248058 l 43.02718884156905 -41.75013964161648" fill="#ff0000" stroke="none" /><path d="M 84.9287848128048 114.62390073753433 l -43.02718884156905 41.75013964161648 a80.9534247537413,80.9534247537413 0 0,0 -0.9617785294997613,-1.0084209430406093 l 43.73947392244777 -41.00331158199337" fill="#ff0000" stroke="none" /><path d="M 83.95833913139862 113.55231037782056 l -45.7977384671776 38.690829546476785 a80.9534247537413,80.9534247537413 0 0,0 -0.8901175999026893,-1.0722039901591112 l 46.456952066973834 -37.896764299203916" fill="#ff0000" stroke="none" /><path d="M 83.72743513129214 113.27417163493432 l -46.456952066973834 37.896764299203916 a80.9534247537413,80.9534247537413 0 0,0 -0.87152949022074,-1.0873670428355788 l 47.102399469249434 -37.09146942279008" fill="#ff0000" stroke="none" /><path d="M 83.50135304334701 112.99209946851258 l -47.102399469249434 37.09146942279008 a80.9534247537413,80.9534247537413 0 0,0 -0.8526831275417925,-1.1022078851900752 l 47.73388941400929 -36.27518354348675" fill="#ff0000" stroke="none" /><path d="M 83.28015986056508 112.70617746262583 l -47.73388941400929 36.27518354348675 a80.9534247537413,80.9534247537413 0 0,0 -0.8335840964497031,-1.1167221195605346 l 48.35123477715408 -35.44814854441691" fill="#ff0000" stroke="none" /><path d="M 83.06392112726016 112.41649034213515 l -48.35123477715408 35.44814854441691 a80.9534247537413,80.9534247537413 0 0,0 -0.8142380563995655,-1.1309054450660794 l 48.95425262592925 -34.61060949389969" fill="#ff0000" stroke="none" /><path d="M 82.6465618267979 111.8261652097733 l -49.542764273132086 33.76281457283126 a80.9534247537413,80.9534247537413 0 0,0 -0.774827951517529,-1.158262657481714 l 50.11659533006035 -32.90501500114373" fill="#ff0000" stroke="none" /><path d="M 82.05923443525364 110.91462005526583 l -51.21953991954925 31.160421533288364 a80.9534247537413,80.9534247537413 0 0,0 -0.7140058305770021,-1.1967148415857005 l 51.74832662582448 -30.27414459781655" fill="#ff0000" stroke="none" /><line stroke="#e1ed5e" stroke-width="0.3" x1="26.63291911575756" x2="22.317208475507996" y1="142.92168965132927" y2="145.44649492493687" /><path d="M 25.769776987707644 143.4266507060508 a86.0,86.0 0 0,1 -11.730757126820373,-40.83630448921669" fill="none" id="id33" stroke="none" /><text fill="#e1ed5e" style="font-size:6.75px; font-family:Arial;" text-anchor="middle"><textPath startOffset="21.46611528233685" xlink:href="#id33">September</textPath></text><path d="M 81.87401531095188 110.60418214915194 l -51.74832662582448 30.27414459781655 a80.9534247537413,80.9534247537413 0 0,0 -0.6933005641232908,-1.2088279720274355 l 52.26177918610015 -29.37889677993081" fill="#ff0000" stroke="none" /><path d="M 81.69416730710424 110.29060199501025 l -52.26177918610015 29.37889677993081 a80.9534247537413,80.9534247537413 0 0,0 -0.672389857749716,-1.2205829006522853 l 52.759745453301385 -28.4749433608807" fill="#ff0000" stroke="none" /><path d="M 81.51974371655577 109.97397251340807 l -52.759745453301385 28.4749433608807 a80.9534247537413,80.9534247537413 0 0,0 -0.6512799077500006,-1.2319761442214683 l 53.24207786927627 -27.56255220157311" fill="#ff0000" stroke="none" /><path d="M 81.18737489456691 109.33194174019688 l -53.708633508520336 26.64199366319959 a80.9534247537413,80.9534247537413 0 0,0 -0.6084873553934982,-1.2536641801119033 l 54.15927412052855 -25.7135405271224" fill="#ff0000" stroke="none" /><path d="M 81.02952815118164 109.00673069616217 l -54.15927412052855 25.7135405271224 a80.9534247537413,80.9534247537413 0 0,0 -0.5868174333936442,-1.263952545800249 l 54.59386617076203 -24.777467914043324" fill="#ff0000" stroke="none" /><path d="M 80.87730276802145 108.67885076344099 l -54.59386617076203 24.777467914043324 a80.9534247537413,80.9534247537413 0 0,0 -0.5649736247236324,-1.2738663750708183 l 55.012280880216935 -23.83405320247981" fill="#ff0000" stroke="none" /><path d="M 80.73074385275274 108.34839909993369 l -55.012280880216935 23.83405320247981 a80.9534247537413,80.9534247537413 0 0,0 -0.5429624021755668,-1.2834027302422972 l 55.41439426358481 -22.883575946571355" fill="#ff0000" stroke="none" /><path d="M 80.58989483394504 108.01547362559985 l -55.41439426358481 22.883575946571355 a80.9534247537413,80.9534247537413 0 0,0 -0.5207902881496057,-1.2925587854866356 l 55.800087165991805 -21.926317793241914" fill="#ff0000" stroke="none" /><path d="M 80.45479744820244 107.68017299344265 l -55.800087165991805 21.926317793241914 a80.9534247537413,80.9534247537413 0 0,0 -0.4984638527216749,-1.3013318276670636 l 56.16924529830699 -20.962562398741692" fill="#ff0000" stroke="none" /><path d="M 80.32549172779594 107.34259656027581 l -56.16924529830699 20.962562398741692 a80.9534247537413,80.9534247537413 0 0,0 -0.47598971169648413,-1.3097192571420542 l 56.5217592710087 -19.99259534459352" fill="#ff0000" stroke="none" /><path d="M 80.20201598880116 107.00284435728193 l -56.5217592710087 19.99259534459352 a80.9534247537413,80.9534247537413 0 0,0 -0.45337452464701883,-1.3177185885350187 l 56.857524626598945 -19.016704052969207" fill="#ff0000" stroke="none" /><path d="M 80.0844068197444 106.66101706037122 l -56.857524626598945 19.016704052969207 a80.9534247537413,80.9534247537413 0 0,0 -0.4306249929412325,-1.3253274514714466 l 57.176441870556424 -18.035177701519956" fill="#ff0000" stroke="none" /><path d="M 79.58551787078972 104.9243191809786 l -58.28181515334312 14.058561880009794 a80.9534247537413,80.9534247537413 0 0,0 -0.31509938692162864,-1.3574399119412424 l 58.5151751061953 -13.053253310719978" fill="#ff0000" stroke="none" /><path d="M 79.4281124754447 104.21870165774334 l -58.73119574980262 12.044076780761861 a80.9534247537413,80.9534247537413 0 0,0 -0.2681873898079583,-1.367481722772712 l 58.92981307258625 -11.031331330921194" fill="#ff0000" stroke="none" /><path d="M 79.29508885075956 103.50808413554451 l -59.11096821994695 10.015317059531492 a80.9534247537413,80.9534247537413 0 0,0 -0.22095753739665283,-1.3759027962894195 l 59.274607511704886 -8.99633503354886" fill="#ff0000" stroke="none" /><path d="M 79.18660465613746 102.79330883721812 l -59.42068245800632 7.9746871993389234 a80.9534247537413,80.9534247537413 0 0,0 -0.1734658064389145,-1.3826931518474865 l 59.549149773692086 -6.950676293204028" fill="#ff0000" stroke="none" /><path d="M 79.10278846688536 102.07522291339032 l -59.659971391123996 5.924605751675524 a80.9534247537413,80.9534247537413 0 0,0 -0.12576848406401014,-1.3878447415276227 l 59.75311447146508 -4.896779621599336" fill="#ff0000" stroke="none" /><path d="M 79.0235259727143 100.99374915477108 l -59.88625986636582 2.837079294031519 a80.9534247537413,80.9534247537413 0 0,0 -0.053960727854437056,-1.392486616818652 l 59.92622272707146 -1.8058154301988698" fill="#ff0000" stroke="none" /><path d="M 79.0095281055655 100.63252640178507 l -59.92622272707146 1.8058154301988698 a80.9534247537413,80.9534247537413 0 0,0 -0.02998336491278884,-1.3932091501271233 l 59.94842815466925 -0.7740164642816176" fill="#ff0000" stroke="none" /><line stroke="#e1ed5e" stroke-width="0.3" x1="15.007084014347285" x2="10.007500721073583" y1="101.09737516637583" y2="101.16192664675087" /><path d="M 14.007167355692545 101.11028546245083 a86.0,86.0 0 0,1 10.666146001902534,-42.60595125391555" fill="none" id="id34" stroke="none" /><text fill="#e1ed5e" style="font-size:6.75px; font-family:Arial;" text-anchor="middle"><textPath startOffset="22.20632615414155" xlink:href="#id34">October</textPath></text><path d="M 79.00175016825051 100.2711162175752 l -59.94842815466925 0.7740164642816176 a80.9534247537413,80.9534247537413 0 0,0 -0.005997117253019486,-1.3935188454966403 l 59.95286956921178 0.258011859418698" fill="#ff0000" stroke="none" /><path d="M 79.00019446554 99.90962569577889 l -59.95286956921178 -0.258011859418698 a80.9534247537413,80.9534247537413 0 0,0 0.0179909074820124,-1.3934156111574927 l 59.93954565461205 1.2899637286366625" fill="#ff0000" stroke="none" /><path d="M 79.00486145842228 99.54816195383935 l -59.93954565461205 -1.2899637286366625 a80.9534247537413,80.9534247537413 0 0,0 0.0419736011228896,-1.392899477700531 l 59.90846035903351 2.321533353762188" fill="#ff0000" stroke="none" /><path d="M 79.26566170972629 96.67025291283419 l -59.1949805002163 -9.506178163780225 a80.9534247537413,80.9534247537413 0 0,0 0.23279174402100644,-1.3739500507970783 l 59.02257689467507 10.523714002893131" fill="#ff0000" stroke="none" /><path d="M 79.32604984820605 96.31383870115002 l -59.02257689467507 -10.523714002893131 a80.9534247537413,80.9534247537413 0 0,0 0.2564075449767901,-1.3697393580708723 l 58.83268362578842 11.538131438426577" fill="#ff0000" stroke="none" /><path d="M 79.3925641242962 95.95851677861259 l -58.83268362578842 -11.538131438426577 a80.9534247537413,80.9534247537413 0 0,0 0.27994736684329524,-1.3651227820116196 l 58.62535696303013 12.549129876601599" fill="#ff0000" stroke="none" /><path d="M 79.46518482838121 95.60439243477599 l -58.62535696303013 -12.549129876601599 a80.9534247537413,80.9534247537413 0 0,0 0.30340423426322066,-1.3601016906102215 l 58.400658341764874 13.556409736761779" fill="#ff0000" stroke="none" /><path d="M 79.54389044137918 95.25157060432595 l -58.400658341764874 -13.556409736761779 a80.9534247537413,80.9534247537413 0 0,0 0.3267711964605472,-1.3546775717244977 l 58.15865434504351 14.559672540145673" fill="#ff0000" stroke="none" /><path d="M 79.62865764111835 94.90015583598534 l -58.15865434504351 -14.559672540145673 a80.9534247537413,80.9534247537413 0 0,0 0.35004132930003673,-1.3488520326378652 l 57.89941668387316 15.558620998332403" fill="#ff0000" stroke="none" /><path d="M 79.91906864156998 93.8553929516997 l -57.32955272298469 -17.542392205313373 a80.9534247537413,80.9534247537413 0 0,0 0.41920195295965285,-1.3289847481459092 l 57.019095286256835 18.5266271198857" fill="#ff0000" stroke="none" /><path d="M 80.02781315780177 93.51064311812611 l -57.019095286256835 -18.5266271198857 a80.9534247537413,80.9534247537413 0 0,0 0.4420161314622461,-1.3215719721969716 l 56.69174186102281 19.50537219500499" fill="#ff0000" stroke="none" /><path d="M 80.14247586403 93.16781622104843 l -59.572572407909995 -20.496551336854708 a84.0,84.0 0 0,0 0.4821876767607618,-1.3632094942935558 l 59.210931650339425 21.518958457574875" fill="#4dd2ff" stroke="none" /><path d="M 80.2630227832202 92.82701384747504 l -56.347589449167366 -20.478337407382543 a80.9534247537413,80.9534247537413 0 0,0 0.48724483018817427,-1.3055739020156363 l 55.98674003047756 21.445234446427524" fill="#ff0000" stroke="none" /><path d="M 80.38941819471856 92.48833698450439 l -55.98674003047756 -21.445234446427524 a80.9534247537413,80.9534247537413 0 0,0 0.5096459481719892,-1.2969933483567715 l 55.60930053242388 22.40577679968006" fill="#ff0000" stroke="none" /><path d="M 80.52162464483688 92.15188598940014 l -55.60930053242388 -22.40577679968006 a80.9534247537413,80.9534247537413 0 0,0 0.5318960470621994,-1.2880284675771123 l 55.21538279847548 23.35967983771048" fill="#ff0000" stroke="none" /><path d="M 80.65960295795068 91.81776055985345 l -55.21538279847548 -23.35967983771048 a80.9534247537413,80.9534247537413 0 0,0 0.5539885336744819,-1.2786819161647789 l 54.80510355495832 24.30666089846186" fill="#ff0000" stroke="none" /><path d="M 80.803312248108 91.48605970444005 l -54.80510355495832 -24.30666089846186 a80.9534247537413,80.9534247537413 0 0,0 0.575916861528124,-1.2689564637043396 l 54.37858437646685 25.246439371008268" fill="#ff0000" stroke="none" /><path d="M 80.95270993114464 91.15688171328213 l -56.016238947831646 -26.00675608981768 a82.75897010294003,82.75897010294003 0 0,0 0.6110047714550623,-1.2869318743282625 l 55.56027598253483 26.967130379786475" fill="#3dff2e" stroke="none" /><line stroke="#e1ed5e" stroke-width="0.3" x1="26.266209847984243" x2="21.928928074336255" y1="57.711370442889674" y2="55.22380399835377" /><path d="M 25.398753493254645 57.213857153982495 a86.0,86.0 0 0,1 29.58750427330803,-30.492523968695096" fill="none" id="id35" stroke="none" /><text fill="#e1ed5e" style="font-size:6.75px; font-family:Arial;" text-anchor="middle"><textPath startOffset="21.46611528233685" xlink:href="#id35">November</textPath></text><line stroke="#e1ed5e" stroke-width="0.3" x1="56.762969772571076" x2="54.21961505331055" y1="26.818313649435495" y2="22.513508569990535" /><path d="M 56.25429882871897 25.957352633546506 a86.0,86.0 0 0,1 42.265352541879196,-11.944610805530505" fill="none" id="id36" stroke="none" /><text fill="#e1ed5e" style="font-size:6.75px; font-family:Arial;" text-anchor="middle"><textPath startOffset="22.20632615414155" xlink:href="#id36">December</textPath></text></svg>