<svg xmlns="http://www.w3.org/2000/svg" xmlns:ev="http://www.w3.org/2001/xml-events" xmlns:xlink="http://www.w3.org/1999/xlink" width="200mm" height="200mm" baseProfile="full" version="1.1" viewBox="0 0 200 200"><rect width="200" height="200" x="0" y="0" fill="#1a1a1a"/><text fill="#e1ed5e" alignment-baseline="middle" style="dominant-baseline:central;font-size:9px;font-family:Arial" x="100" y="100" text-anchor="middle">2022</text><line x1="100" x2="100" y1="15" y2="10" stroke="#e1ed5e" stroke-width=".3"/><path id="id25" fill="none" stroke="none" d="M 100.0 14.0 a86.0,86.0 0 0,1 42.46469731375804,11.215312516191453"/><text fill="#e1ed5e" style="font-size:6.75px;font-family:Arial" text-anchor="middle"><textPath startOffset="22.206" xlink:href="#id25">January</textPath></text><path fill="red" stroke="none" d="M 107.08798089147638 80.2323363322302 l 10.543941289382179 -29.405988578759196 a52.23918792491339,52.23918792491339 0 0,0 0.8438312300675441,0.31079016341857046 l -11.048554845222299 29.2201351475343"/><path fill="red" stroke="none" d="M 107.4271985657038 80.35727306442388 l 11.048554845222299 -29.2201351475343 a52.23918792491339,52.23918792491339 0 0,0 0.8383564655924725,0.3252692840007272 l -11.549894475814439 29.025623159643025"/><line x1="143.237" x2="145.78" y1="26.818" y2="22.514" stroke="#e1ed5e" stroke-width=".3"/><path id="id26" fill="none" stroke="none" d="M 143.74570117128098 25.957352633546492 a86.0,86.0 0 0,1 28.547481713284135,27.462654790039103"/><text fill="#e1ed5e" style="font-size:6.75px;font-family:Arial" text-anchor="middle"><textPath startOffset="19.986" xlink:href="#id26">February</textPath></text><line x1="172.234" x2="176.484" y1="55.198" y2="52.563" stroke="#e1ed5e" stroke-width=".3"/><path id="id27" fill="none" stroke="none" d="M 173.08426987136738 54.67131705675599 a86.0,86.0 0 0,1 12.851231095245387,41.99856678651699"/><text fill="#e1ed5e" style="font-size:6.75px;font-family:Arial" text-anchor="middle"><textPath startOffset="22.206" xlink:href="#id27">March</textPath></text><path fill="red" stroke="none" d="M 118.3937258080291 89.86733742301442 l 27.36214557887383 -15.073150020104283 a52.23918792491339,52.23918792491339 0 0,0 0.4270974033386762,0.7913466235325878 l -27.61755108143097 14.599922413239236"/><path fill="red" stroke="none" d="M 118.56541770881063 90.18545643968196 l 27.61755108143097 -14.599922413239236 a52.23918792491339,52.23918792491339 0 0,0 0.4134123929760267,0.7985811567078672 l -27.86477290756711 14.122368534271025"/><path fill="red" stroke="none" d="M 119.04729006885535 91.15688171328212 l 28.334374948633755 -13.154849238143715 a52.23918792491339,52.23918792491339 0 0,0 0.37163874474754105,0.8188567114688077 l -28.556616010344644 12.665170517832845"/><path fill="red" stroke="none" d="M 119.61058180528143 92.48833698450437 l 29.172316682479703 -11.174202503318558 a52.23918792491339,52.23918792491339 0 0,0 0.31441874543382653,0.8424859185973714 l -29.360340016415158 10.670393447691854"/><path fill="red" stroke="none" d="M 119.85752413597 93.16781622104841 l 29.539663247955716 -10.163422524200637 a52.23918792491339,52.23918792491339 0 0,0 0.28523269803026857,0.8528094620074371 l -29.710233239757752 9.653439959270887"/><path fill="red" stroke="none" d="M 120.08093135843002 93.85539295169968 l 29.871999448251504 -9.1405968717429 a52.23918792491339,52.23918792491339 0 0,0 0.25570859325498413,0.8621222569047858 l -30.02491393861819 8.625045228091585"/><line x1="184.98" x2="189.979" y1="98.171" y2="98.064" stroke="#e1ed5e" stroke-width=".3"/><path id="id28" fill="none" stroke="none" d="M 185.9800911702706 98.14961562048488 a86.0,86.0 0 0,1 -9.607161424134198,41.387399972396054"/><text fill="#e1ed5e" style="font-size:6.75px;font-family:Arial" text-anchor="middle"><textPath startOffset="21.466" xlink:href="#id28">April</textPath></text><line x1="174.801" x2="179.201" y1="140.371" y2="142.746" stroke="#e1ed5e" stroke-width=".3"/><path id="id29" fill="none" stroke="none" d="M 175.68104954172406 140.8457921977663 a86.0,86.0 0 0,1 -30.038265399797805,32.042727171017184"/><text fill="#e1ed5e" style="font-size:6.75px;font-family:Arial" text-anchor="middle"><textPath startOffset="22.206" xlink:href="#id29">May</textPath></text><path fill="red" stroke="none" d="M 117.35343817320211 111.8261652097733 l 25.814634106477435 17.592371305675268 a52.23918792491339,52.23918792491339 0 0,0 -0.5127875623537302,0.7387087290741604 l -25.507985636961568 -18.034121296936448"/><path fill="red" stroke="none" d="M 117.14729908036423 112.12312394758627 l 25.507985636961568 18.034121296936448 a52.23918792491339,52.23918792491339 0 0,0 -0.52542724379191,0.7297724864615545 l -25.193778600794055 -18.47052738884913"/><path fill="red" stroke="none" d="M 116.93607887273984 112.41649034213515 l 25.193778600794055 18.47052738884913 a52.23918792491339,52.23918792491339 0 0,0 -0.5379112297981101,0.7206199965114248 l -24.872106104300855 -18.901460264869872"/><path fill="red" stroke="none" d="M 115.80600337817218 113.82643327865902 l 23.512700470120784 20.567930834443125 a52.23918792491339,52.23918792491339 0 0,0 -0.5978679294909676,0.6717109567375067 l -23.155173690981478 -20.969615960921498"/><line x1="143.865" x2="146.446" y1="172.807" y2="177.09" stroke="#e1ed5e" stroke-width=".3"/><path id="id30" fill="none" stroke="none" d="M 144.38136562736335 173.6633856474863 a86.0,86.0 0 0,1 -40.68145358897372,12.25698825130547"/><text fill="#e1ed5e" style="font-size:6.75px;font-family:Arial" text-anchor="middle"><textPath startOffset="21.466" xlink:href="#id30">June</textPath></text><line x1="102.195" x2="102.324" y1="184.972" y2="189.97" stroke="#e1ed5e" stroke-width=".3"/><path id="id31" fill="none" stroke="none" d="M 102.22038585953345 185.97133177190398 a86.0,86.0 0 0,1 -42.740103519485714,-10.115201625700543"/><text fill="#e1ed5e" style="font-size:6.75px;font-family:Arial" text-anchor="middle"><textPath startOffset="22.206" xlink:href="#id31">July</textPath></text><path fill="red" stroke="none" d="M 94.11515582081647 120.15858648285463 l -8.754178724873677 29.987517687548323 a52.23918792491339,52.23918792491339 0 0,0 -0.8610138217014975,-0.2594164014745824 l 9.269067521015419 -29.832385916968015"/><path fill="red" stroke="none" d="M 93.76903079525671 120.05430185196036 l -9.269067521015419 29.832385916968015 a52.23918792491339,52.23918792491339 0 0,0 -0.8564208263014653,-0.2741989037034206 l 9.781209692407826 -29.668414166604887"/><path fill="red" stroke="none" d="M 93.42475214034765 119.94407469862007 l -9.781209692407826 29.668414166604887 a52.23918792491339,52.23918792491339 0 0,0 -0.8515740549275261,-0.2889001548793847 l 10.290453480272577 -29.495651024827378"/><path fill="red" stroke="none" d="M 93.08242187328487 119.8279376855182 l -10.290453480272577 29.495651024827378 a52.23918792491339,52.23918792491339 0 0,0 -0.8464749437826574,-0.3035157987044965 l 10.796647984684961 -29.314147685082926"/><path fill="red" stroke="none" d="M 92.7421414339146 119.70592522655815 l -10.796647984684961 29.314147685082926 a52.23918792491339,52.23918792491339 0 0,0 -0.8411250038434789,-0.3180415042480292 l 11.299643209288723 -29.123957930728263"/><path fill="red" stroke="none" d="M 92.40401165467489 119.57807347666478 l -11.299643209288723 29.123957930728263 a52.23918792491339,52.23918792491339 0 0,0 -0.8355258204127175,-0.33247296722996084 l 11.7992901057433 -28.925138119092235"/><path fill="red" stroke="none" d="M 92.06813273071674 119.44442032107085 l -11.7992901057433 28.925138119092235 a52.23918792491339,52.23918792491339 0 0,0 -0.8296790526492455,-0.34680591129634936 l 12.295440617890007 -28.71774716477591"/><path fill="red" stroke="none" d="M 91.7346041902142 119.30500536409082 l -12.295440617890007 28.71774716477591 a52.23918792491339,52.23918792491339 0 0,0 -0.8235864330765565,-0.3610360892865411 l 12.787947725624306 -28.50184652219492"/><path fill="red" stroke="none" d="M 91.40352486487194 119.15986991738527 l -12.787947725624306 28.50184652219492 a52.23918792491339,52.23918792491339 0 0,0 -0.8172497670692483,-0.3751592844916683 l 13.276665488460974 -28.277500167369176"/><path fill="red" stroke="none" d="M 90.7491055286396 118.85261126421891 l -13.761449088779502 28.044774578965406 a52.23918792491339,52.23918792491339 0 0,0 -0.803851878274366,-0.4030680194580205 l 14.242154874736627 -27.803738718598083"/><path fill="red" stroke="none" d="M 90.42595943632237 118.69057910512821 l -14.242154874736627 27.803738718598083 a52.23918792491339,52.23918792491339 0 0,0 -0.7967946255703713,-0.41684528925875575 l 14.718640402833495 -27.55446401039461"/><path fill="red" stroke="none" d="M 90.10565033884886 118.52300852407294 l -14.718640402833495 27.55446401039461 a52.23918792491339,52.23918792491339 0 0,0 -0.7895012654226037,-0.4304990388040296 l 15.19076448012474 -27.297024319830815"/><line x1="58.667" x2="56.235" y1="174.274" y2="178.643" stroke="#e1ed5e" stroke-width=".3"/><path id="id32" fill="none" stroke="none" d="M 58.180547188652646 175.14741091055294 a86.0,86.0 0 0,1 -31.652253787137756,-30.449443065178592"/><text fill="#e1ed5e" style="font-size:6.75px;font-family:Arial" text-anchor="middle"><textPath startOffset="22.206" xlink:href="#id32">August</textPath></text><path fill="red" stroke="none" d="M 89.7882731507175 118.34994917583269 l -15.19076448012474 27.297024319830815 a52.23918792491339,52.23918792491339 0 0,0 -0.7819739590110145,-0.44402522219315566 l 15.658387206056961 -27.031495931843025"/><path fill="red" stroke="none" d="M 89.4739219176387 118.17145234162733 l -15.658387206056961 27.031495931843025 a52.23918792491339,52.23918792491339 0 0,0 -0.7742149368390109,-0.45741983132610453 l 16.121370013924356 -26.757957528223173"/><path fill="red" stroke="none" d="M 89.1626897886671 117.98757091392108 l -16.121370013924356 26.757957528223173 a52.23918792491339,52.23918792491339 0 0,0 -0.7662264980722999,-0.4706788970911113 l 16.579575711928964 -26.476490164303684"/><path fill="red" stroke="none" d="M 88.8546689885994 117.79835938074946 l -16.579575711928964 26.476490164303684 a52.23918792491339,52.23918792491339 0 0,0 -0.7580110098577011,-0.4837984905408291 l 17.03286852383359 -26.18717724493905"/><path fill="red" stroke="none" d="M 88.54995079064634 117.60387380957326 l -17.03286852383359 26.18717724493905 a52.23918792491339,52.23918792491339 0 0,0 -0.7495709066216322,-0.4967747240565575 l 17.48111412919518 -25.89010449979117"/><path fill="red" stroke="none" d="M 87.65650970185807 116.9893568818739 l -18.361933955857193 25.273033921727585 a52.23918792491339,52.23918792491339 0 0,0 -0.7229282449575658,-0.5348050328461947 l 18.794247171233323 -24.95321894014162"/><path fill="red" stroke="none" d="M 87.36589467227662 116.77436683061367 l -18.794247171233323 24.95321894014162 a52.23918792491339,52.23918792491339 0 0,0 -0.7136153458327428,-0.5471698170651345 l 19.220991245559553 -24.62600978124912"/><path fill="red" stroke="none" d="M 87.07902340077011 116.55440617244103 l -19.220991245559553 24.62600978124912 a52.23918792491339,52.23918792491339 0 0,0 -0.704090987079838,-0.5593724630583673 l 19.64203972535675 -24.291503404185622"/><path fill="red" stroke="none" d="M 86.79598089348748 116.32954008644616 l -19.64203972535675 24.291503404185622 a52.23918792491339,52.23918792491339 0 0,0 -0.6943579909719485,-0.5714093549185538 l 20.057267844873387 -23.949798930409887"/><path fill="red" stroke="none" d="M 86.51685102203217 116.09983520530335 l -20.057267844873387 23.949798930409887 a52.23918792491339,52.23918792491339 0 0,0 -0.6844192416058393,-0.5832769258548522 l 20.466552563056283 -23.600997614332087"/><path fill="red" stroke="none" d="M 85.97065885151581 115.62618273729859 l -20.869772600010375 23.245202813309902 a52.23918792491339,52.23918792491339 0 0,0 -0.6639363234592872,-0.6064900897017658 l 21.266808472936518 -22.88251995702156"/><path fill="red" stroke="none" d="M 85.70375840098266 115.38237550388516 l -21.266808472936518 22.88251995702156 a52.23918792491339,52.23918792491339 0 0,0 -0.6533982242094613,-0.6178288040508905 l 21.657542531536794 -22.51305651622474"/><path fill="red" stroke="none" d="M 85.44109423537348 115.13401014063109 l -21.657542531536794 22.51305651622474 a52.23918792491339,52.23918792491339 0 0,0 -0.6426665089643433,-0.6289844423915663 l 22.041858992876932 -22.136921970910603"/><path fill="red" stroke="none" d="M 85.18274418774928 114.88116024355367 l -22.041858992876932 22.136921970910603 a52.23918792491339,52.23918792491339 0 0,0 -0.63174435776274,-0.6399536990673546 l 22.419643975695205 -21.754227777862585"/><path fill="red" stroke="none" d="M 84.9287848128048 114.62390073753433 l -22.419643975695205 21.754227777862585 a52.23918792491339,52.23918792491339 0 0,0 -0.6206350070737792,-0.6507333236507968 l 22.790785534147943 -21.365087337629287"/><path fill="red" stroke="none" d="M 83.95833913139862 113.55231037782056 l -23.863259928665148 20.160150986166215 a52.23918792491339,52.23918792491339 0 0,0 -0.5743922597226558,-0.6918924789920666 l 24.206748188281342 -19.74639725006039"/><path fill="red" stroke="none" d="M 83.72743513129214 113.27417163493432 l -24.206748188281342 19.74639725006039 a52.23918792491339,52.23918792491339 0 0,0 -0.5623973656487102,-0.7016771861948924 l 24.54306346598491 -19.326792230287236"/><path fill="red" stroke="none" d="M 83.50135304334701 112.99209946851258 l -24.54306346598491 19.326792230287236 a52.23918792491339,52.23918792491339 0 0,0 -0.550235821097859,-0.7112539713040945 l 24.87210610430084 -18.90146026486989"/><path fill="red" stroke="none" d="M 83.28015986056508 112.70617746262583 l -24.87210610430084 18.90146026486989 a52.23918792491339,52.23918792491339 0 0,0 -0.5379112297981276,-0.7206199965114423 l 25.19377860079405 -18.47052738884914"/><path fill="red" stroke="none" d="M 83.06392112726016 112.41649034213515 l -25.19377860079405 18.47052738884914 a52.23918792491339,52.23918792491339 0 0,0 -0.5254272437918983,-0.7297724864615371 l 25.507985636961557 -18.034121296936465"/><path fill="red" stroke="none" d="M 82.6465618267979 111.8261652097733 l -25.814634106477428 17.592371305675275 a52.23918792491339,52.23918792491339 0 0,0 -0.49999593089394584,-0.7474260763476903 l 26.113633142782103 -17.145408315121763"/><path fill="red" stroke="none" d="M 82.05923443525364 110.91462005526583 l -26.688330809234596 16.23637462073704 a52.23918792491339,52.23918792491339 0 0,0 -0.46074745912799797,-0.77223924364286 l 26.963859144060827 -15.774573283208067"/><line x1="26.633" x2="22.317" y1="142.922" y2="145.446" stroke="#e1ed5e" stroke-width=".3"/><path id="id33" fill="none" stroke="none" d="M 25.769776987707644 143.4266507060508 a86.0,86.0 0 0,1 -11.730757126820373,-40.83630448921669"/><text fill="#e1ed5e" style="font-size:6.75px;font-family:Arial" text-anchor="middle"><textPath startOffset="21.466" xlink:href="#id33">September</textPath></text><path fill="red" stroke="none" d="M 81.87401531095188 110.60418214915194 l -26.963859144060827 15.774573283208067 a52.23918792491339,52.23918792491339 0 0,0 -0.4473863652817387,-0.7800558381776767 l 27.231397505494943 -15.308097599172083"/><path fill="red" stroke="none" d="M 81.69416730710424 110.29060199501025 l -27.231397505494943 15.308097599172083 a52.23918792491339,52.23918792491339 0 0,0 -0.43389270120001777,-0.787641285332574 l 27.490866616146477 -14.837085795441686"/><path fill="red" stroke="none" d="M 81.51974371655577 109.97397251340807 l -27.490866616146477 14.837085795441686 a52.23918792491339,52.23918792491339 0 0,0 -0.42027046534680645,-0.7949933373760222 l 27.74218958971817 -14.361677442979538"/><path fill="red" stroke="none" d="M 81.18737489456691 109.33194174019688 l -27.985291953788938 13.88201341554065 a52.23918792491339,52.23918792491339 0 0,0 -0.3926564614780607,-0.8089886116469891 l 28.220101671881718 -13.398235847928376"/><path fill="red" stroke="none" d="M 81.02952815118164 109.00673069616217 l -28.220101671881718 13.398235847928376 a52.23918792491339,52.23918792491339 0 0,0 -0.37867287608791617,-0.8156276867728243 l 28.44654916480946 -12.910488093876724"/><path fill="red" stroke="none" d="M 80.87730276802145 108.67885076344099 l -28.44654916480946 12.910488093876724 a52.23918792491339,52.23918792491339 0 0,0 -0.36457708175210135,-0.8220250738123003 l 28.664567331292844 -12.418914683571728"/><path fill="red" stroke="none" d="M 80.73074385275274 108.34839909993369 l -28.664567331292844 12.418914683571728 a52.23918792491339,52.23918792491339 0 0,0 -0.35037325535879793,-0.8281788770817361 l 28.874091567843948 -11.923661280823833"/><path fill="red" stroke="none" d="M 80.58989483394504 108.01547362559985 l -28.874091567843948 11.923661280823833 a52.23918792491339,52.23918792491339 0 0,0 -0.3360656058082302,-0.8340872730762832 l 29.075059787909566 -11.424874639904745"/><path fill="red" stroke="none" d="M 80.45479744820244 107.68017299344265 l -29.075059787909566 11.424874639904745 a52.23918792491339,52.23918792491339 0 0,0 -0.32165837276576126,-0.8397485110106968 l 29.267412440268835 -10.92270256206089"/><path fill="red" stroke="none" d="M 80.32549172779594 107.34259656027581 l -29.267412440268835 10.92270256206089 a52.23918792491339,52.23918792491339 0 0,0 -0.3071558254055066,-0.8451609133381318 l 29.451092526679567 -10.417293851716641"/><path fill="red" stroke="none" d="M 80.20201598880116 107.00284435728193 l -29.451092526679567 10.417293851716641 a52.23918792491339,52.23918792491339 0 0,0 -0.29256226114521894,-0.8503228762468279 l 29.626045618768014 -9.908798272380515"/><path fill="red" stroke="none" d="M 80.0844068197444 106.66101706037122 l -29.626045618768014 9.908798272380515 a52.23918792491339,52.23918792491339 0 0,0 -0.2778820043729145,-0.8552328701357844 l 29.792219874157176 -9.397366502266928"/><path fill="red" stroke="none" d="M 79.58551787078972 104.9243191809786 l -30.36818302972315 7.325320585564103 a52.23918792491339,52.23918792491339 0 0,0 -0.20333341224903795,-0.8759550182390429 l 30.48977700790274 -6.8014969099764855"/><path fill="red" stroke="none" d="M 79.4281124754447 104.21870165774334 l -30.60233620713162 6.275657804066089 a52.23918792491339,52.23918792491339 0 0,0 -0.17306113358252287,-0.8824349916895463 l 30.70582727368981 -5.747959085308588"/><path fill="red" stroke="none" d="M 79.29508885075956 103.50808413554451 l -30.80021954094078 5.218557122222965 a52.23918792491339,52.23918792491339 0 0,0 -0.14258374311651806,-0.8878691044933836 l 30.88548503841859 -4.687608788036368"/><path fill="#4dd2ff" stroke="none" d="M 79.18660465613746 102.79330883721812 l -62.440186031587636 8.379926511654372 a84.0,84.0 0 0,0 -0.1799939630126075,-1.4347289828503655 l 62.5751815038471 -7.303879774516597"/><path fill="red" stroke="none" d="M 79.10278846688536 102.07522291339032 l -31.086281818554088 3.087060884642204 a52.23918792491339,52.23918792491339 0 0,0 -0.0811583141051443,-0.8955752333370394 l 31.13481472893631 -2.5515042627565987"/><path fill="red" stroke="none" d="M 79.0235259727143 100.99374915477108 l -31.204191149544897 1.4782817426722652 a52.23918792491339,52.23918792491339 0 0,0 -0.03482081964448046,-0.8985706321900186 l 31.22501410204058 -0.9409338634682498"/><path fill="red" stroke="none" d="M 79.0095281055655 100.63252640178507 l -31.22501410204058 0.9409338634682498 a52.23918792491339,52.23918792491339 0 0,0 -0.019348244241242468,-0.8990368824246202 l 31.23658440896683 -0.4033071652535007"/><line x1="15.007" x2="10.008" y1="101.097" y2="101.162" stroke="#e1ed5e" stroke-width=".3"/><path id="id34" fill="none" stroke="none" d="M 14.007167355692545 101.11028546245083 a86.0,86.0 0 0,1 10.666146001902534,-42.60595125391555"/><text fill="#e1ed5e" style="font-size:6.75px;font-family:Arial" text-anchor="middle"><textPath startOffset="22.206" xlink:href="#id34">October</textPath></text><path fill="red" stroke="none" d="M 79.00175016825051 100.2711162175752 l -31.23658440896683 0.4033071652535007 a52.23918792491339,52.23918792491339 0 0,0 -0.0038699355356642483,-0.8992367286282477 l 31.238898641791998 0.13443904157842232"/><path fill="red" stroke="none" d="M 79.00019446554 99.90962569577889 l -31.238898641791998 -0.13443904157842232 a52.23918792491339,52.23918792491339 0 0,0 0.01160951991532812,-0.8991701115819715 l 31.231956114758955 0.6721454112208658"/><path fill="red" stroke="none" d="M 79.00486145842228 99.54816195383935 l -31.231956114758955 -0.6721454112208658 a52.23918792491339,52.23918792491339 0 0,0 0.027085535215020662,-0.898837051026046 l 31.215758885088288 1.2096526096719062"/><path fill="red" stroke="none" d="M 79.26566170972629 96.67025291283419 l -30.84399477850419 -4.953266428495511 a52.23918792491339,52.23918792491339 0 0,0 0.15022034830860775,-0.8866089992037773 l 30.75416256867536 5.483461216015116"/><path fill="red" stroke="none" d="M 79.32604984820605 96.31383870115002 l -30.75416256867536 -5.483461216015116 a52.23918792491339,52.23918792491339 0 0,0 0.16545960801725296,-0.8838918421559134 l 30.655217236748243 6.0120311356336025"/><path fill="red" stroke="none" d="M 79.3925641242962 95.95851677861259 l -30.655217236748243 -6.0120311356336025 a52.23918792491339,52.23918792491339 0 0,0 0.18064983847314875,-0.8809127688793649 l 30.5471881023601 6.5388195606763695"/><path fill="red" stroke="none" d="M 79.46518482838121 95.60439243477599 l -30.5471881023601 -6.5388195606763695 a52.23918792491339,52.23918792491339 0 0,0 0.19578653848314592,-0.8776726621376957 l 30.430107176874916 7.063670392364025"/><path fill="red" stroke="none" d="M 79.54389044137918 95.25157060432595 l -30.430107176874916 -7.063670392364025 a52.23918792491339,52.23918792491339 0 0,0 0.21086522271637934,-0.8741724820445083 l 30.304009153897724 7.58642810606793"/><path fill="red" stroke="none" d="M 79.62865764111835 94.90015583598534 l -30.304009153897724 -7.58642810606793 a52.23918792491339,52.23918792491339 0 0,0 0.2258814230332611,-0.8704132657786584 l 30.168931398994154 8.106937797395451"/><path fill="red" stroke="none" d="M 79.91906864156998 93.8553929516997 l -29.87199944825151 -9.140596871742886 a52.23918792491339,52.23918792491339 0 0,0 0.27051072472555204,-0.8575929211015785 l 29.710233239757756 9.65343995927088"/><path fill="red" stroke="none" d="M 80.02781315780177 93.51064311812611 l -29.710233239757756 -9.65343995927088 a52.23918792491339,52.23918792491339 0 0,0 0.2852326980302628,-0.8528094620074168 l 29.539663247955723 10.16342252420062"/><path fill="#ff2d04" stroke="none" d="M 80.14247586403 93.16781622104843 l -31.040741913664867 -10.67988395416364 a53.82662912674941,53.82662912674941 0 0,0 0.30898258626774344,-0.8735353794214624 l 30.85230624658731 11.212616960011713"/><path fill="red" stroke="none" d="M 80.2630227832202 92.82701384747504 l -29.360340016415165 -10.67039344769184 a52.23918792491339,52.23918792491339 0 0,0 0.3144187454338207,-0.8424859185973511 l 29.172316682479714 11.174202503318533"/><path fill="red" stroke="none" d="M 80.38941819471856 92.48833698450439 l -29.172316682479714 -11.174202503318533 a52.23918792491339,52.23918792491339 0 0,0 0.3288741710769536,-0.8369488933702062 l 28.97564896152107 11.674700401584502"/><path fill="red" stroke="none" d="M 80.52162464483688 92.15188598940014 l -28.97564896152107 -11.674700401584502 a52.23918792491339,52.23918792491339 0 0,0 0.3432321442054454,-0.8311638621229467 l 28.770395130429424 12.17173883416076"/><path fill="red" stroke="none" d="M 80.65960295795068 91.81776055985345 l -28.770395130429424 -12.17173883416076 a52.23918792491339,52.23918792491339 0 0,0 0.3574884102421003,-0.825132539085484 l 28.556616010344644 12.665170517832843"/><path fill="red" stroke="none" d="M 80.803312248108 91.48605970444005 l -28.556616010344644 -12.665170517832843 a52.23918792491339,52.23918792491339 0 0,0 0.37163874474752945,-0.8188567114687874 l 28.334374948633762 13.1548492381437"/><path fill="#ff1b02" stroke="none" d="M 80.95270993114464 91.15688171328213 l -29.187687317711827 -13.551018046829789 a53.179981060622495,53.179981060622495 0 0,0 0.39262477690954084,-0.8269679119732919 l 28.950104346960536 14.051428374443613"/><path fill="red" stroke="none" d="M 81.10775173730289 90.83032412892265 l -28.103737800119692 -13.640629892720424 a52.23918792491339,52.23918792491339 0 0,0 0.3996048795991582,-0.8055790530516206 l 27.86477290756712 14.122368534271006"/><path fill="red" stroke="none" d="M 81.26839172434947 90.50648371742162 l -27.86477290756712 -14.122368534271006 a52.23918792491339,52.23918792491339 0 0,0 0.4134123929760325,-0.7985811567078904 l 27.617551081430975 14.59992241323923"/><path fill="red" stroke="none" d="M 81.43458229118936 90.18545643968196 l -27.617551081430975 -14.59992241323923 a52.23918792491339,52.23918792491339 0 0,0 0.4270974033386588,-0.7913466235325529 l 27.362145578873843 15.073150020104258"/><path fill="red" stroke="none" d="M 81.6062741919709 89.86733742301443 l -27.362145578873843 -15.073150020104258 a52.23918792491339,52.23918792491339 0 0,0 0.44065585552319675,-0.78387759727409 l 27.098632082058216 15.541911127313131"/><line x1="26.266" x2="21.929" y1="57.711" y2="55.224" stroke="#e1ed5e" stroke-width=".3"/><path id="id35" fill="none" stroke="none" d="M 25.398753493254645 57.213857153982495 a86.0,86.0 0 0,1 29.58750427330803,-30.492523968695096"/><text fill="#e1ed5e" style="font-size:6.75px;font-family:Arial" text-anchor="middle"><textPath startOffset="21.466" xlink:href="#id35">November</textPath></text><path fill="red" stroke="none" d="M 81.78341655067845 89.55222093294921 l -27.098632082058216 -15.541911127313131 a52.23918792491339,52.23918792491339 0 0,0 0.45408373186759804,-0.7761762911660455 l 26.827088675720294 16.00606683083307"/><path fill="red" stroke="none" d="M 81.96595687620814 89.24020034530311 l -26.827088675720294 -16.00606683083307 a52.23918792491339,52.23918792491339 0 0,0 0.46737705340231656,-0.7682449872716719 l 26.54759582403176 16.465479591311816"/><path fill="red" stroke="none" d="M 82.15384107792192 88.93136811851018 l -26.54759582403176 -16.465479591311816 a52.23918792491339,52.23918792491339 0 0,0 0.48053188102925715,-0.7600860358074493 l 26.26023634675654 16.92001327483348"/><path fill="red" stroke="none" d="M 82.34701348167596 88.62581576622439 l -26.26023634675654 -16.92001327483348 a52.23918792491339,52.23918792491339 0 0,0 0.49354431668917714,-0.7517018544468956 l 25.965095394709444 17.369533193258043"/><path fill="red" stroke="none" d="M 82.54541684631803 88.32363383020206 l -25.965095394709444 -17.369533193258043 a52.23918792491339,52.23918792491339 0 0,0 0.5064105045164442,-0.7430949276037312 l 25.662260424524256 17.81390614413219"/><path fill="red" stroke="none" d="M 82.7489923806493 88.02491185347247 l -25.662260424524256 -17.81390614413219 a52.23918792491339,52.23918792491339 0 0,0 0.5191266319820501,-0.7342678056962944 l 25.35182117273833 18.253000450160272"/><path fill="red" stroke="none" d="M 82.95767976084542 87.72973835380427 l -25.35182117273833 -18.253000450160272 a52.23918792491339,52.23918792491339 0 0,0 0.5316889310228732,-0.7252231043911666 l 25.03386962920182 18.686685998222938"/><path fill="red" stroke="none" d="M 83.17141714833178 87.43820079747576 l -25.03386962920182 -18.686685998222938 a52.23918792491339,52.23918792491339 0 0,0 0.5440936791587032,-0.7159635038286722 l 24.70850000981901 19.114834277932637"/><path fill="red" stroke="none" d="M 83.39014120810768 87.1503855733568 l -24.70850000981901 -19.114834277932637 a52.23918792491339,52.23918792491339 0 0,0 0.5563372005948372,-0.7064917478281671 l 24.3758087286302 19.537318419713852"/><path fill="red" stroke="none" d="M 83.6137871275137 86.86637796730984 l -24.3758087286302 -19.537318419713852 a52.23918792491339,52.23918792491339 0 0,0 0.5684158673117817,-0.6968106430755504 l 24.035894369242026 19.954013232397482"/><path fill="red" stroke="none" d="M 83.84228863543731 86.58626213691792 l -24.035894369242026 -19.954013232397482 a52.23918792491339,52.23918792491339 0 0,0 0.5803261001397082,-0.6869230582908376 l 23.688857655615195 20.364795240317438"/><path fill="red" stroke="none" d="M 84.31358615837235 86.03803664274999 l -23.33480142221757 -20.769542719899427 a52.23918792491339,52.23918792491339 0 0,0 0.603627198049226,-0.666540228561067 l 22.973830583552296 21.16813573573005"/><path fill="red" stroke="none" d="M 84.80347519578584 85.50635884689758 l -22.606052103069224 -21.560456176096412 a52.23918792491339,52.23918792491339 0 0,0 0.6262128778966304,-0.6453674163384844 l 22.231574961469477 21.94638778798502"/><path fill="red" stroke="none" d="M 85.05521093208273 85.24692304244772 l -22.231574961469477 -21.94638778798502 a52.23918792491339,52.23918792491339 0 0,0 0.6372290368902281,-0.6344925728951005 l 21.850510124411933 22.325816211530228"/><path fill="red" stroke="none" d="M 85.83668400450813 84.49514656593479 l -21.069070953481067 -23.064715722619145 a52.23918792491339,52.23918792491339 0 0,0 0.6691317889862338,-0.6007531269025955 l 20.66892817689886 23.423967858291018"/><path fill="red" stroke="none" d="M 86.10567301691215 84.25364557470407 l -20.66892817689886 -23.423967858291018 a52.23918792491339,52.23918792491339 0 0,0 0.6793736274262111,-0.5891461150451145 l 20.262660750825876 23.776278966755815"/><path fill="red" stroke="none" d="M 86.37877921826538 84.01681056812374 l -20.262660750825876 -23.776278966755815 a52.23918792491339,52.23918792491339 0 0,0 0.6894141527983998,-0.5773645264790253 l 19.850389061068366 24.121544650628653"/><path fill="red" stroke="none" d="M 86.65592168130627 83.78471172551755 l -19.850389061068366 -24.121544650628653 a52.23918792491339,52.23918792491339 0 0,0 0.6992503898782637,-0.5654118523431368 l 19.4322352726256 24.459662600235923"/><path fill="red" stroke="none" d="M 86.93701828274178 83.55741782278169 l -19.4322352726256 -24.459662600235923 a52.23918792491339,52.23918792491339 0 0,0 0.7088794239766264,-0.55329163447286 l 19.00832329348955 24.790532623932005"/><path fill="red" stroke="none" d="M 87.22198572758235 83.33499621200491 l -19.00832329348955 -24.790532623932005 a52.23918792491339,52.23918792491339 0 0,0 0.7182984018027149,-0.5410074643502264 l 18.578778737928445 25.114056677788085"/><path fill="red" stroke="none" d="M 87.51073957382395 83.11751280151077 l -18.578778737928445 -25.114056677788085 a52.23918792491339,52.23918792491339 0 0,0 0.7275045323102806,-0.5285629820400706 l 18.14372888926438 25.430138894644823"/><path fill="red" stroke="none" d="M 88.09926311788651 82.69761687909137 l -17.703302662156716 -25.738685612519713 a52.23918792491339,52.23918792491339 0 0,0 0.7452674033485065,-0.5032078775429227 l 17.25763056440167 26.0396054023613"/><line x1="56.763" x2="54.22" y1="26.818" y2="22.514" stroke="#e1ed5e" stroke-width=".3"/><path id="id36" fill="none" stroke="none" d="M 56.25429882871897 25.957352633546506 a86.0,86.0 0 0,1 42.265352541879196,-11.944610805530505"/><text fill="#e1ed5e" style="font-size:6.75px;font-family:Arial" text-anchor="middle"><textPath startOffset="22.206" xlink:href="#id36">December</textPath></text></svg>